<svg width="201" height="120" viewBox="0 0 201 120" fill="none" xmlns="http://www.w3.org/2000/svg">
<path d="M0 31.7057L22.0341 92.3496L63.5248 84.0061V25.3481L0 31.7057Z" fill="#3EBB76"/>
<path d="M71.3115 25.3485L77.981 89.7959L129.531 86.4299V30.0347L71.3115 25.3485Z" fill="#F8E147"/>
<path d="M138.306 33.4638L201 32.4824L185.341 90.8174L141.821 87.4502L138.306 33.4638Z" fill="#5DB7C4"/>
<path d="M29.937 84.94C30.0564 84.9582 30.2309 84.9705 30.4806 84.9705C35.5628 84.9705 51.2298 79.5229 55.6078 77.9676C51.3265 62.6963 45.0113 40.4699 44.3339 38.8568C41.9043 33.0868 39.5369 31.8752 37.9789 31.8752C37.8681 31.8752 37.7577 31.8812 37.6444 31.8942C37.5385 31.9025 37.4305 31.9105 37.3226 31.9105C32.4465 31.9105 25.458 19.3019 23.4335 15.439L23.0791 14.7668L25.7697 10.7214L23.8265 6.47929L12.0077 9.33035L10.7287 14.1382L16.1292 15.507L22.9513 35.1438L22.4463 35.7098C22.3891 35.7763 16.6135 42.2878 15.7582 47.3417C15.1898 50.7122 22.249 66.8888 26.0429 75.5797C28.2544 80.646 29.5254 83.5824 29.937 84.94ZM30.4806 87.584C28.2638 87.584 27.5968 86.6616 27.4284 85.889C27.2233 84.9602 25.4539 80.9014 23.5768 76.6015C17.4741 62.6163 12.4742 50.7284 13.1164 46.9172C13.9417 42.0292 18.4028 36.3846 19.9263 34.5739L14.0569 17.6817L7.46338 16.0129L9.81496 7.16772L25.3553 3.41735L28.8113 10.9505L26.1728 14.9169C29.9471 21.9593 35.1589 29.2969 37.3226 29.2969C37.5706 29.2725 37.7755 29.2624 37.9789 29.2624C41.4367 29.2624 44.4097 32.156 46.8112 37.8643C47.7944 40.2002 57.4219 74.5262 58.5172 78.4329L58.8383 79.5827L57.6931 80.0024C56.8462 80.3118 36.861 87.584 30.4806 87.584Z" fill="#231F20"/>
<path d="M83.9281 79.3123L109.91 82.5405C110.656 78.515 111.61 72.9398 112.532 67.5306C114.113 58.297 115.605 49.5736 116.338 46.7185C117.446 42.375 114.874 40.5278 112.608 38.8973C111.207 37.8906 109.759 36.8505 110.056 35.2302C110.606 32.2504 112.582 31.5673 114.171 31.0195C116.032 30.3776 117.785 29.7723 118.5 25.1104C119.439 18.9815 117.565 14.5863 113.484 13.3513C112.007 12.9052 111.544 12.0384 111.417 11.3895C111.14 9.97813 112.311 8.62966 113.098 7.9027L113.122 4.07527L105.272 2.92957L104.303 6.40215C104.872 7.26091 105.54 8.62257 105.052 9.75305C104.875 10.1627 104.398 10.8734 103.193 11.0194C99.1169 11.5111 93.9958 13.8127 92.7488 21.9887C92.1429 25.9418 93.4003 26.7407 94.8562 27.6685C96.2186 28.5343 98.0777 29.7175 97.3285 33.111C97.0001 34.5966 95.5878 35.4402 94.0914 36.3293C91.8374 37.6735 89.0316 39.3456 88.4455 43.7042C87.4115 51.3805 84.6265 73.7034 83.9281 79.3123ZM112.087 85.4482L80.9478 81.5749L81.1078 80.2865C81.1431 80.0077 84.6078 52.1409 85.7873 43.3648C86.5427 37.765 90.2454 35.5586 92.6968 34.0996C93.5552 33.5878 94.6245 32.951 94.7097 32.5617C95.0714 30.9253 94.6474 30.6564 93.3941 29.8574C91.7408 28.805 89.2394 27.2132 90.0988 21.6034C91.6181 11.6551 98.2741 9.09706 102.416 8.48467C102.272 8.16631 102.029 7.75467 101.782 7.44036L101.381 6.92735L103.311 0.000450134L115.817 1.82545L115.77 9.12444L115.273 9.51377C114.792 9.89601 114.291 10.4628 114.117 10.8004C114.159 10.8166 114.213 10.8349 114.277 10.8541C119.65 12.4814 122.284 18.0903 121.15 25.4967C120.196 31.7122 117.231 32.7352 115.063 33.4821C113.658 33.9669 113.001 34.1951 112.713 35.5851C112.909 35.866 113.647 36.3982 114.197 36.7947C116.547 38.4827 120.476 41.3096 118.936 47.3482C118.233 50.1071 116.677 59.1842 115.177 67.9615C114.151 73.9497 113.091 80.1384 112.317 84.2324" fill="#231F20"/>
<path d="M177.531 77.7038L143.731 62.7989L163.716 15.1306L191.829 23.8551L182.724 34.5894L195.634 41.0101L177.531 77.7038ZM195.596 38.058L186.917 33.7419L193.332 26.182L195.596 38.058ZM195.298 22.1893L162.175 11.9095L140.275 64.1411L178.811 81.1348L198.804 40.6089" fill="#231F20"/>
<path d="M23.9414 110.451L25.415 108.92V104.423L23.9661 103.009H21.4254V110.451H23.9414ZM27.6013 103.544V109.754L24.8682 112.56H21.4254V118.261H19.2638V103.635L20.165 103.102V102.941H17.9795V100.9H24.8443" fill="#231F20"/>
<path d="M34.7051 103.009H34.2541L32.9478 111.633H36.0362L34.7051 103.009ZM30.9981 100.901H36.583L39.2183 118.262H37.0339L36.3451 113.742H32.6393L31.95 118.262H29.7637L31.95 103.706L32.8512 103.174V103.009H30.9981" fill="#231F20"/>
<path d="M43.9004 107.947H45.7064L46.9649 106.44V104.332L45.7771 102.985H44.5654L43.4243 104.332V105.35H41.24V103.45L43.6634 100.831H46.6811L49.1512 103.45V107.277L47.8441 108.805L49.6253 110.52V115.642L47.0367 118.309H43.6634L41.0967 115.642V112.512H43.2591V114.809L44.5893 116.246H46.0856L47.4398 114.809V111.492L45.9195 109.988H43.9004" fill="#231F20"/>
<path d="M59.7472 102.965H57.6086L55.637 116.408H59.7472V102.965ZM51.7401 120V116.408H53.4519L55.3046 103.683L56.2077 103.125V102.965H54.3538V100.9H61.9087V116.408H63.429V120H61.3372V118.261H53.8322V120" fill="#231F20"/>
<path d="M72.0775 108.619V110.73H68.0641V116.153H71.2461V114.368H73.4087V118.262H65.9006V103.705L66.8046 103.174V103.01H64.6421V100.901H73.1967V105.004H71.0341V103.01H68.0641V108.619" fill="#231F20"/>
<path d="M77.4958 102.965V100.901H85.0517V118.262H82.8882V102.965H80.7505L78.5184 118.262H75.2158V116.316H76.5938L78.4467 103.683L79.4204 103.125V102.965" fill="#231F20"/>
<path d="M90.5176 108.713V116.153H93.0574L94.5081 114.737V110.242L93.0355 108.713H90.5176ZM93.9365 118.262H88.354V100.901H90.5176V106.605H93.9604L96.6924 109.408V115.619" fill="#231F20"/>
<path d="M98.7617 100.947H102.182V108.596H106.197V100.947H108.359V118.261H106.197V110.613H102.182V118.261H100.02V103.729L100.899 103.218V103.056H98.7617" fill="#231F20"/>
<path d="M122.471 100.878H124.632V118.263H122.471V100.878ZM113.849 108.713V116.152H116.391L117.839 114.738V110.243L116.366 108.713H113.849ZM117.269 118.261H111.686V100.901H113.849V106.605H117.292L120.024 109.408V115.619" fill="#231F20"/>
<path d="M129.672 98.1895L130.861 96.9142L131.762 97.6572H133.212L134.162 96.9142L135.303 98.1895L133.971 99.6263H131.026L129.672 98.1895ZM126.939 103.056V100.948H130.359V107.044L130.028 114.02H130.098L131.857 107.16L133.877 100.948H136.799V118.262H134.637V109.917L135.04 103.891H134.969L133.282 109.733L130.503 118.262H128.197V103.729L129.078 103.219V103.056" fill="#231F20"/>
<path d="M150.84 104.215L149.485 102.848H147.942L146.612 104.215V114.785L147.965 116.269H149.462L150.84 114.785V112.859L153.003 112.839V115.573L150.413 118.378H147.015L144.45 115.573V103.382L147.04 100.738H150.413L153.003 103.382V106.001H150.84" fill="#231F20"/>
<path d="M158.398 109.501V116.153H160.937L162.387 114.737V111.031L160.914 109.501H158.398ZM154.976 102.985V100.877H164.076V104.749H161.913V102.985H158.398V107.392H161.842L164.572 110.196V115.618L161.818 118.262H156.235V103.661L157.113 103.148V102.985" fill="#231F20"/>
<path d="M174.267 114.737V104.145L172.841 102.755H171.226L169.799 104.145V114.737L171.25 116.245H172.818L174.267 114.737ZM176.429 115.549L173.743 118.331H170.322L167.664 115.549V103.288L170.346 100.669H173.743L176.429 103.288" fill="#231F20"/>
<path d="M184.65 110.451L186.122 108.92V104.423L184.673 103.009H182.131V110.451H184.65ZM188.308 103.544V109.754L185.576 112.56H182.131V118.261H179.97V103.635L180.872 103.102V102.941H178.686V100.9H185.553" fill="#231F20"/>
</svg>
