<svg width="255" height="33" viewBox="0 0 255 33" fill="none" xmlns="http://www.w3.org/2000/svg">
<path d="M52.2722 18.4164C49.7765 25.7474 56.2135 32.5392 69.7048 32.7896H90.2872L96.6695 22.8884H78.7961C74.8276 22.8884 74.3167 21.3041 74.3167 21.3041H97.7065L104.097 11.4446H81.4205C81.6094 11.2404 83.3754 9.84981 86.1081 9.84981H105.118L111.468 0.037454C111.468 0.0366786 88.2676 0.037454 88.2676 0.037454C72.3043 0.0366786 55.2999 9.51747 52.2722 18.4164Z" fill="#0033AB"/>
<path d="M153.117 18.4164C150.618 25.7474 157.048 32.5392 170.527 32.7896H190.418L196.81 22.8884H179.635C169.326 22.8884 174.142 9.84981 192.247 9.84981H204.371L210.72 0.037454C210.72 0.0366786 189.1 0.037454 189.1 0.037454C170.654 0.0366786 156.123 9.51747 153.117 18.4164Z" fill="#0033AB"/>
<path d="M161.919 0.0371094H139.14C125.133 0.0371094 109.474 7.19736 103.654 16.2225L100.356 21.3038H121.27C121.27 21.6044 119.381 22.8962 116.021 22.8962L99.3228 22.92L92.9261 32.7929L116.463 32.7892C128.861 32.7892 144.677 26.7484 150.101 18.336L154.544 11.4509L132.128 11.4453C132.128 10.9831 134.139 9.98727 136.349 9.98727L155.493 9.99175L161.919 0.0371094Z" fill="#0033AB"/>
<path d="M254.396 7.86749C251.239 0.101223 236.638 -2.32506 221.775 2.44026C215.529 4.43855 210.231 7.40083 206.428 10.7373C207.947 10.8654 209.476 11.0559 211.024 11.3146C212.283 11.5363 213.454 11.7858 214.69 12.071C218.664 12.9461 223.168 13.9483 232.089 13.7096C232.102 13.7096 231.226 15.0388 231.226 15.0388C222.473 15.2846 217.929 14.2996 214.05 13.44C212.78 13.1722 211.584 12.8953 210.281 12.6911C202.701 11.3908 195.274 11.833 188.113 13.3375L186.89 15.2256C194.396 13.3709 201.933 13.1121 209.889 14.4651C211.14 14.6756 212.316 14.9334 213.554 15.2159C217.396 16.0692 221.738 17.0178 230.06 16.8634L229.202 18.19C220.945 18.3597 216.679 17.4229 212.917 16.6068C211.642 16.3143 210.453 16.061 209.143 15.8349C201.182 14.4904 193.444 14.9805 185.932 16.7045L184.708 18.6393C192.563 16.5377 200.422 16.2143 208.753 17.6271C210.015 17.844 211.181 18.0973 212.421 18.3542C216.115 19.1911 220.277 20.1156 228.003 20.0429L227.139 21.3676C219.323 21.4556 215.168 20.5377 211.486 19.7432C210.199 19.4491 208.984 19.1977 207.654 18.9706C199.501 17.6224 191.59 18.1028 183.886 19.8813L182.643 21.785C188.357 20.2916 194.237 19.7232 200.132 19.9983C199.664 21.8324 199.854 23.3403 200.57 25.1304C203.729 32.8902 218.331 35.3367 233.196 30.5487C248.054 25.7742 257.548 15.6196 254.396 7.86749Z" fill="#0033AB"/>
<path d="M53.6759 11.4449H37.6425C37.8694 10.8601 39.9681 9.849 43.882 9.849H54.6929L61.0487 0.0374786C61.0487 0.0366478 45.7643 0.0374786 45.7643 0.0374786C31.3102 0.0366478 16.5501 7.39397 9.98211 17.3389L0 32.7888H20.567L27.7091 21.3033H47.3L53.6759 11.4449Z" fill="#0033AB"/>
</svg>
