<svg width="316" height="343" viewBox="0 0 316 343" fill="none" xmlns="http://www.w3.org/2000/svg">
<path d="M5.3186 339.636V337.096C6.2886 337.616 7.35861 338.016 8.54861 338.316C9.73861 338.616 10.8886 338.766 12.0186 338.766C13.9086 338.766 15.4886 338.226 16.7486 337.146C18.0086 336.066 18.6386 334.626 18.6386 332.806C18.6386 330.446 17.8786 328.836 16.3586 327.966C14.8386 327.106 12.7886 326.676 10.2186 326.676C9.96861 326.676 9.7286 326.686 9.4886 326.696C9.2486 326.716 8.99861 326.726 8.71861 326.736V324.456C8.99861 324.436 9.2486 324.416 9.4886 324.406C9.7286 324.396 9.96861 324.386 10.2186 324.386C11.5886 324.386 12.8986 324.186 14.1686 323.786C15.4386 323.386 16.3586 322.766 16.9386 321.926C17.5186 321.086 17.8086 320.206 17.8086 319.286C17.8086 317.706 17.3186 316.436 16.3386 315.476C15.3586 314.516 14.0286 314.036 12.3386 314.036C11.3586 314.036 10.3986 314.116 9.4586 314.266C8.5186 314.426 7.6186 314.746 6.7686 315.246V312.696C7.1986 312.496 7.70861 312.316 8.29861 312.156C8.88861 311.996 9.5486 311.886 10.2686 311.836C10.9886 311.786 11.7086 311.766 12.4186 311.766C14.7286 311.766 16.5886 312.456 17.9886 313.846C19.3886 315.236 20.0886 316.986 20.0886 319.106C20.0886 320.696 19.6686 322.026 18.8186 323.086C17.9686 324.156 16.8886 324.886 15.5686 325.286C17.0386 325.686 18.3086 326.496 19.3586 327.716C20.4086 328.936 20.9386 330.636 20.9386 332.816C20.9386 335.266 20.1686 337.256 18.6186 338.766C17.0686 340.286 14.8886 341.036 12.0786 341.036C10.8386 341.036 9.6486 340.926 8.5186 340.716C7.3686 340.506 6.3086 340.146 5.3186 339.636Z" fill="#368069" stroke="#368069" stroke-width="2" stroke-miterlimit="10"/>
<path d="M30.1284 312.036H43.9984V314.316H32.4084V323.416H43.9984V325.696H32.4084V338.036H43.9984V340.316H30.1284V312.036Z" fill="#368069" stroke="#368069" stroke-width="2" stroke-miterlimit="10"/>
<path d="M60.8786 311.276H61.1886L72.2586 340.306H69.8186L61.0386 317.276L52.2586 340.306H49.8186L60.8786 311.276Z" fill="#368069" stroke="#368069" stroke-width="2" stroke-miterlimit="10"/>
<path d="M79.1584 312.036H93.0284V314.316H81.4384V323.486H93.0284V325.766H81.4384V338.026H93.0284V340.306H79.1584V312.036Z" fill="#368069" stroke="#368069" stroke-width="2" stroke-miterlimit="10"/>
<path d="M80.2786 305.246C80.2786 304.786 80.4486 304.376 80.7886 304.016C81.1286 303.656 81.5286 303.476 81.9886 303.476C82.4786 303.476 82.8886 303.656 83.2386 304.016C83.5786 304.376 83.7586 304.786 83.7586 305.246C83.7586 305.736 83.5886 306.136 83.2386 306.466C82.8986 306.796 82.4786 306.956 81.9886 306.956C81.4986 306.956 81.0986 306.796 80.7686 306.466C80.4386 306.146 80.2786 305.736 80.2786 305.246Z" fill="#368069" stroke="#368069" stroke-miterlimit="10"/>
<path d="M87.0286 305.246C87.0286 304.786 87.2086 304.376 87.5686 304.016C87.9286 303.656 88.3386 303.476 88.7986 303.476C89.2886 303.476 89.6886 303.656 90.0186 304.016C90.3486 304.376 90.5086 304.786 90.5086 305.246C90.5086 305.736 90.3486 306.136 90.0186 306.466C89.6886 306.796 89.2886 306.956 88.7986 306.956C88.3086 306.956 87.8986 306.796 87.5486 306.466C87.2086 306.146 87.0286 305.736 87.0286 305.246Z" fill="#368069" stroke="#368069" stroke-miterlimit="10"/>
<path d="M102.599 312.036H104.879V323.416H120.559V312.036H122.839V340.306H120.559V325.686H104.879V340.306H102.599V312.036Z" fill="#368069" stroke="#368069" stroke-width="2" stroke-miterlimit="10"/>
<path d="M146.679 326.406C144.999 325.196 142.769 324.586 139.999 324.586H135.609V312.036H133.329V340.306H139.849C142.749 340.306 145.039 339.666 146.699 338.386C148.369 337.106 149.199 335.136 149.199 332.476C149.199 329.636 148.359 327.616 146.679 326.406ZM145.039 336.846C143.789 337.636 142.259 338.026 140.449 338.026H135.599V326.866H140.449C142.389 326.866 143.949 327.246 145.139 328.006C146.329 328.766 146.919 330.256 146.919 332.466C146.919 334.596 146.289 336.056 145.039 336.846Z" fill="#368069" stroke="#368069" stroke-width="2" stroke-miterlimit="10"/>
<path d="M155.168 312.036H152.888V340.306H155.168V312.036Z" fill="#368069" stroke="#368069" stroke-width="2" stroke-miterlimit="10"/>
<path d="M164.648 312.036H166.918V335.696L185.208 312.036H186.778V340.306H184.498V316.686L166.208 340.306H164.648V312.036Z" fill="#368069" stroke="#368069" stroke-width="2" stroke-miterlimit="10"/>
<path d="M169.779 305.996L170.069 303.476C170.989 304.086 171.989 304.576 173.079 304.966C174.169 305.356 175.279 305.546 176.379 305.546C177.439 305.546 178.519 305.346 179.639 304.946C180.759 304.546 181.789 304.056 182.709 303.476L182.979 305.996C182.069 306.576 181.109 307.026 180.119 307.346C179.129 307.666 177.879 307.826 176.369 307.826C175.459 307.826 174.579 307.746 173.749 307.606C172.919 307.456 172.179 307.226 171.529 306.926C170.899 306.616 170.309 306.306 169.779 305.996Z" fill="#368069" stroke="#368069" stroke-miterlimit="10"/>
<path d="M207.889 310.856H208.199L219.119 336.056L230.019 310.856H230.329L234.129 340.306H231.829L229.049 318.816L219.249 341.406H218.939L209.149 318.786L206.369 340.306H204.069L207.889 310.856Z" fill="#368069" stroke="#368069" stroke-width="2" stroke-miterlimit="10"/>
<path d="M250.849 310.936H251.159L263.479 340.306H261.009L257.019 330.786H244.999L241.009 340.306H238.539L250.849 310.936ZM256.059 328.506L251.009 316.456L245.959 328.506H256.059Z" fill="#368069" stroke="#368069" stroke-width="2" stroke-miterlimit="10"/>
<path d="M278.078 326.786C275.918 326.786 274.208 326.166 272.948 324.916C271.688 323.666 271.058 321.946 271.058 319.736C271.058 317.126 271.798 315.196 273.268 313.926C274.748 312.656 276.978 312.026 279.968 312.026H285.018V340.296H282.738V326.776H280.908L270.978 340.296H268.128L278.078 326.786ZM282.748 324.506V314.306H280.068C277.698 314.306 275.988 314.686 274.928 315.436C273.868 316.186 273.348 317.586 273.348 319.646C273.348 321.636 273.798 322.936 274.708 323.566C275.618 324.196 277.408 324.506 280.068 324.506H282.748Z" fill="#368069" stroke="#368069" stroke-width="2" stroke-miterlimit="10"/>
<path d="M293.928 312.036H296.208V325.146L309.178 312.036H312.328L298.918 325.646L312.868 340.316H309.778L296.198 326.106V340.316H293.918V312.036H293.928Z" fill="#368069" stroke="#368069" stroke-width="2" stroke-miterlimit="10"/>
<path d="M151.339 156.826C164.749 155.246 181.159 154.236 199.639 162.436L200.679 174.786C181.179 172.206 162.869 163.586 151.339 156.826Z" fill="#2E6D58"/>
<path d="M115.658 162.916C115.658 155.986 117.738 144.136 117.738 129.516C129.018 146.196 178.488 168.336 200.608 172.706L202.548 196.826C174.208 195.406 140.798 180.386 115.658 162.916Z" fill="#81C690"/>
<path d="M109.888 232.486L112.588 199.906C139.378 216.506 170.308 225.146 204.478 232.486L206.028 250.766C196.198 251.696 187.128 253.336 179.388 256.216C147.028 251.466 124.388 243.446 109.888 232.486Z" fill="#81C690"/>
<path d="M121.108 122.316L123.298 93.5357C145.928 81.3057 169.038 82.0457 192.618 95.0457L194.218 123.716L178.818 121.096C182.368 82.1457 133.198 80.7556 136.648 120.556L121.108 122.316Z" fill="#81C690"/>
<path d="M212.009 145.716L299.539 162.166C294.199 205.486 267.539 244.266 237.229 263.106C225.449 250.936 215.619 251.136 214.559 250.766L205.979 160.916L212.009 145.716Z" fill="#81C690"/>
<path d="M102.289 144.666L16.5986 161.906C22.5086 219.726 63.6887 259.196 98.2587 275.036L108.749 160.096L102.289 144.666Z" fill="#81C690"/>
<path d="M267.439 56.0057C209.599 -13.8343 104.989 -15.0643 46.0586 56.6257L119.859 83.5957L154.229 52.2757L155.569 49.0457H159.049L159.719 52.2757L194.919 83.5957L267.439 56.0057Z" fill="#81C690"/>
<path d="M139.378 124.986L142.078 150.086L155.098 149.486L154.368 124.036C149.068 123.726 144.068 124.036 139.378 124.986Z" fill="#81C690"/>
<path d="M159.269 123.916L159.929 149.486L172.279 150.016L174.909 125.136C170.919 123.556 165.289 123.546 159.269 123.916Z" fill="#81C690"/>
<path d="M179.959 125.676L177.039 150.466L187.919 152.316L194.219 128.276C189.529 126.466 184.769 125.636 179.959 125.676Z" fill="#81C690"/>
<path d="M198.518 129.526L190.668 153.406L201.768 155.996L212.878 132.896C207.648 131.106 202.748 129.826 198.518 129.526Z" fill="#81C690"/>
<path d="M104.259 132.366L116.009 129.156L121.769 153.606L112.649 156.096L104.259 132.366Z" fill="#81C690"/>
<path d="M120.868 128.036C125.308 126.866 129.848 126.076 134.478 125.676L137.228 150.636L126.708 152.456L120.868 128.036Z" fill="#81C690"/>
<path d="M157.128 149.506C176.508 149.266 190.688 152.146 205.648 157.326L214.558 250.776H206.018L198.588 162.926C187.538 158.846 173.408 156.516 157.118 156.826C140.828 156.506 126.698 158.846 115.648 162.926L106.298 276.516L97.8784 275.696L108.588 157.326C123.778 152.626 137.738 149.266 157.128 149.506Z" fill="#2E6D58"/>
<path d="M206.279 160.326C209.539 152.006 212.809 143.696 216.069 135.376C216.529 134.196 216.989 133.026 217.459 131.846C218.079 130.276 216.769 128.626 215.359 128.156C200.409 123.096 184.889 119.736 169.139 118.566C154.209 117.456 139.169 118.416 124.459 121.196C116.079 122.776 107.829 124.976 99.7286 127.666C98.2686 128.146 97.0786 129.756 97.6286 131.356C100.589 139.826 103.549 148.286 106.509 156.756C106.929 157.976 107.359 159.186 107.779 160.406C108.299 161.896 109.829 163.006 111.469 162.506C133.779 155.626 157.219 153.426 180.319 157.196C187.849 158.426 195.279 160.216 202.569 162.436C206.269 163.566 207.849 157.776 204.169 156.646C191.389 152.746 178.159 150.246 164.809 149.526C152.789 148.886 140.719 149.776 128.899 151.986C122.469 153.186 116.129 154.796 109.879 156.716C111.109 157.416 112.339 158.116 113.569 158.816C110.609 150.346 107.649 141.886 104.689 133.416C104.269 132.196 103.839 130.986 103.419 129.766C102.719 130.996 102.019 132.226 101.319 133.456C115.349 128.796 129.869 125.626 144.619 124.546C159.139 123.486 173.779 124.356 188.069 127.096C196.779 128.766 205.349 131.096 213.749 133.946C213.049 132.716 212.349 131.486 211.649 130.256C208.389 138.576 205.119 146.886 201.859 155.206C201.399 156.386 200.939 157.556 200.469 158.736C199.879 160.246 201.119 162.026 202.569 162.426C204.289 162.886 205.679 161.836 206.279 160.326Z" fill="#2E6D58"/>
<path d="M117.739 125.676L124.479 154.126" stroke="#2E6D58" stroke-width="5" stroke-miterlimit="10"/>
<path d="M136.638 122.316L139.808 151.126" stroke="#2E6D58" stroke-width="5" stroke-miterlimit="10"/>
<path d="M177.739 122.566L174.539 151.196" stroke="#2E6D58" stroke-width="5" stroke-miterlimit="10"/>
<path d="M197.428 126.056L194.738 92.3856C167.708 79.9156 144.298 79.1056 120.398 91.7156L117.729 125.666" stroke="#2E6D58" stroke-width="7" stroke-miterlimit="10"/>
<path d="M156.769 121.096L157.469 150.466" stroke="#2E6D58" stroke-width="5" stroke-miterlimit="10"/>
<path d="M189.099 154.806L196.579 127.216" stroke="#2E6D58" stroke-width="5" stroke-miterlimit="10"/>
<path d="M109.488 232.116C125.738 243.696 151.158 250.806 179.388 256.036C154.998 264.316 129.548 276.356 105.878 276.516L109.488 232.116Z" fill="#2E6D58"/>
<path d="M115.169 162.436C139.319 179.236 174.379 194.506 201.649 196.786L204.629 232.526C169.179 225.436 137.029 215.716 112.089 199.426L115.169 162.436Z" fill="#2E6D58"/>
<path d="M22.7885 132.076C21.0085 144.776 20.9785 157.776 22.7285 170.616C24.5285 183.446 28.0885 196.086 33.3185 208.066C38.5285 220.056 45.5185 231.306 53.9885 241.376C62.4685 251.436 72.5085 260.256 83.8085 267.216L88.1085 269.726C89.5685 270.516 91.0485 271.266 92.5185 272.046C93.9985 272.796 95.5086 273.456 97.0086 274.166C97.3786 274.326 97.7585 274.546 98.1285 274.656L99.2385 275.026C99.9985 275.226 100.769 275.466 101.559 275.596C104.699 276.236 107.989 276.316 111.269 276.106C114.549 275.906 117.839 275.376 121.099 274.716C127.619 273.366 134.049 271.406 140.419 269.286C146.789 267.156 153.119 264.856 159.469 262.586C165.819 260.316 172.189 258.076 178.639 256.096C185.099 254.126 191.649 252.386 198.339 251.326C205.009 250.296 211.889 249.906 218.539 251.336C221.859 252.026 225.049 253.286 227.959 255.006C230.849 256.776 233.389 259.066 235.499 261.686C233.339 259.106 230.759 256.876 227.859 255.176C224.939 253.526 221.749 252.346 218.459 251.726C211.859 250.446 205.059 250.966 198.469 252.116C191.859 253.286 185.389 255.146 179.009 257.236C172.619 259.336 166.319 261.696 160.029 264.086C153.729 266.476 147.449 268.916 141.079 271.176C134.709 273.436 128.259 275.546 121.609 277.056C118.279 277.806 114.909 278.416 111.469 278.696C108.039 278.976 104.529 278.976 101.039 278.336C100.169 278.206 99.3085 277.966 98.4385 277.746C97.5685 277.486 96.6985 277.216 95.9285 276.886C94.3385 276.246 92.7185 275.666 91.1485 274.986C89.5885 274.286 88.0185 273.606 86.4685 272.886L81.8785 270.586C69.7785 264.146 58.7485 255.626 49.2185 245.656C39.6885 235.676 31.5685 224.276 25.2485 211.906C18.8985 199.546 14.2385 186.266 11.4285 172.546C8.67854 158.806 7.79855 144.636 8.88855 130.536L22.7885 132.076Z" fill="#2E6D58"/>
<path d="M268.579 87.1857L292.669 107.816C292.919 108.026 293.299 107.906 293.379 107.596L301.539 76.2857C301.639 75.8857 301.189 75.5757 300.849 75.8257L286.569 86.3657C286.489 86.4257 286.399 86.4557 286.309 86.4557L268.859 86.4257C268.459 86.4157 268.269 86.9257 268.579 87.1857Z" fill="#2E6D58"/>
<path d="M33.1685 126.296L24.7285 94.6357C24.6385 94.3157 24.2585 94.1957 24.0285 94.4257L0.148521 117.156C-0.161479 117.446 0.048519 117.976 0.458519 117.946L17.9585 116.816C18.0485 116.806 18.1385 116.836 18.2185 116.886L32.5185 126.786C32.8485 127.046 33.2785 126.706 33.1685 126.296Z" fill="#2E6D58"/>
<path d="M215.758 260.016L182.588 261.196C182.248 261.206 182.048 261.566 182.228 261.856L199.278 290.916C199.498 291.286 200.068 291.206 200.128 290.786L202.978 273.046C202.998 272.956 203.038 272.866 203.108 272.806L216.128 260.786C216.428 260.506 216.188 259.996 215.758 260.016Z" fill="#2E6D58"/>
<path d="M197.359 264.922C201.982 266.484 206.283 267.403 211.004 267.192L210.36 279.772C205.201 280.332 198.256 279.257 194.004 277.667L197.359 264.922Z" fill="#2E6D58"/>
<path d="M203.404 267.16C211.747 267.39 220.201 265.965 228.27 263.095C236.361 260.236 243.956 255.802 250.915 250.472C264.832 239.741 275.932 225.175 283.709 209.044C291.506 192.874 296.011 175.069 297.294 156.976C298.687 138.853 296.506 120.47 291.779 102.726C297.637 120.132 301.051 138.524 300.829 157.106C300.697 175.657 297.273 194.348 290.183 211.834C283.103 229.28 272.357 245.63 257.712 258.502C250.389 264.889 242.117 270.468 232.906 274.414C223.715 278.359 209 281.185 198.5 279.5C188 277.815 203.394 267.16 203.394 267.16H203.404Z" fill="#2E6D58"/>
<path d="M8.65845 133.756C8.87845 127.496 9.52845 121.286 10.6884 115.136L25.2684 116.706L22.2784 135.616L8.65845 133.756Z" fill="#2E6D58"/>
<path d="M281.289 94.2257C281.289 92.2257 278.899 84.0756 271.019 71.4656C263.149 58.8556 253.169 47.4857 241.579 38.0057C229.999 28.5157 216.829 20.9157 202.719 15.6357C188.619 10.3457 173.589 7.43565 158.429 7.00565C143.279 6.55565 128.009 8.55565 113.429 13.0357C98.8486 17.4957 84.9686 24.4156 72.5386 33.4056C60.0986 42.3956 49.0986 53.4557 40.1386 66.0357C31.1786 78.6157 24.2686 92.7057 19.8386 107.606C23.7086 92.5557 30.1086 78.1057 38.6986 65.0457C47.2786 51.9757 58.0386 40.2857 70.4386 30.6057C82.8286 20.9157 96.8486 13.2357 111.799 8.04566C126.739 2.83566 142.599 0.125654 158.509 0.00565384C174.419 -0.134346 190.419 2.32566 205.629 7.38566C220.839 12.4257 235.239 20.0157 248.079 29.7557C260.919 39.4857 272.189 51.3557 281.289 64.7757C291.087 79.2257 293.339 91.7257 293.339 88.7257C293.339 85.7257 281.289 96.2257 281.289 94.2257Z" fill="#2E6D58"/>
<path d="M157.119 80.2657C173.179 80.5157 184.739 85.1757 198.479 93.6757L203.069 89.6657L159.339 51.6257V47.0957H157.129" fill="#2E6D58"/>
<path d="M157.119 81.7657C164.329 81.8957 171.439 82.9857 178.269 85.3257C185.149 87.6757 191.549 91.1657 197.719 94.9757C198.319 95.3457 199.039 95.1757 199.539 94.7457C201.069 93.4057 202.599 92.0657 204.129 90.7357C204.709 90.2257 204.709 89.1257 204.129 88.6157C199.189 84.3157 194.249 80.0257 189.309 75.7257C181.469 68.9057 173.639 62.0957 165.799 55.2757C163.999 53.7057 162.189 52.1357 160.389 50.5657C160.539 50.9157 160.679 51.2757 160.829 51.6257C160.829 50.1157 160.829 48.6057 160.829 47.0957C160.829 46.2857 160.139 45.5957 159.329 45.5957C158.589 45.5957 157.859 45.5957 157.119 45.5957C155.189 45.5957 155.189 48.5957 157.119 48.5957C157.859 48.5957 158.589 48.5957 159.329 48.5957C158.829 48.0957 158.329 47.5957 157.829 47.0957C157.829 48.2357 157.829 49.3857 157.829 50.5257C157.829 51.3257 157.729 52.0857 158.309 52.7257C158.829 53.2957 159.519 53.7857 160.109 54.2957C163.329 57.0957 166.559 59.9057 169.779 62.7057C178.429 70.2257 187.079 77.7557 195.729 85.2757C197.819 87.0957 199.909 88.9157 202.009 90.7357C202.009 90.0257 202.009 89.3257 202.009 88.6157C200.479 89.9557 198.949 91.2957 197.419 92.6257C198.029 92.5457 198.629 92.4657 199.239 92.3957C192.849 88.4557 186.199 84.8757 179.069 82.4457C171.999 80.0357 164.579 78.9157 157.119 78.7857C155.189 78.7257 155.189 81.7257 157.119 81.7657Z" fill="#2E6D58"/>
<path d="M157.659 80.2657C141.599 80.5157 130.038 85.1757 116.298 93.6757L111.708 89.6657L155.439 51.6257V47.0957H157.648" fill="#2E6D58"/>
<path d="M157.659 78.7657C150.199 78.9057 142.779 80.0157 135.709 82.4257C128.589 84.8557 121.929 88.4357 115.539 92.3757C116.149 92.4557 116.749 92.5357 117.359 92.6057C115.829 91.2657 114.299 89.9257 112.769 88.5957C112.769 89.3057 112.769 90.0057 112.769 90.7157C118.439 85.7857 124.099 80.8557 129.769 75.9257C137.799 68.9357 145.829 61.9557 153.859 54.9657C154.689 54.2457 155.589 53.5557 156.369 52.7857C156.909 52.2457 156.939 51.6257 156.939 50.9057C156.939 49.6257 156.939 48.3557 156.939 47.0757C156.439 47.5757 155.939 48.0757 155.439 48.5757C156.179 48.5757 156.909 48.5757 157.649 48.5757C159.579 48.5757 159.579 45.5757 157.649 45.5757C156.909 45.5757 156.179 45.5757 155.439 45.5757C154.629 45.5757 153.939 46.2657 153.939 47.0757C153.939 48.5857 153.939 50.0957 153.939 51.6057C154.089 51.2557 154.229 50.8957 154.379 50.5457C149.439 54.8457 144.499 59.1357 139.559 63.4357C131.719 70.2557 123.889 77.0657 116.049 83.8857C114.249 85.4557 112.439 87.0257 110.639 88.5957C110.059 89.1057 110.059 90.2057 110.639 90.7157C112.169 92.0557 113.699 93.3957 115.229 94.7257C115.729 95.1557 116.459 95.3257 117.049 94.9557C123.219 91.1457 129.619 87.6557 136.499 85.3057C143.329 82.9757 150.439 81.8757 157.649 81.7457C159.589 81.7257 159.599 78.7257 157.659 78.7657Z" fill="#2E6D58"/>
</svg>
