<svg width="208" height="81" viewBox="0 0 208 81" fill="none" xmlns="http://www.w3.org/2000/svg">
<path d="M3.38672 18H9.12891C10.332 18 11.3672 17.8047 12.2344 17.4141C13.1094 17.0156 13.7852 16.457 14.2617 15.7383C14.7383 15.0195 14.9766 14.168 14.9766 13.1836V13.1602C14.9766 12.4258 14.8008 11.7656 14.4492 11.1797C14.1055 10.5859 13.6289 10.1094 13.0195 9.75C12.418 9.38281 11.7266 9.17188 10.9453 9.11719V9.02344C11.5625 8.9375 12.1133 8.72266 12.5977 8.37891C13.0898 8.02734 13.4766 7.58984 13.7578 7.06641C14.0391 6.53516 14.1797 5.96094 14.1797 5.34375V5.32031C14.1797 4.45312 13.9688 3.70312 13.5469 3.07031C13.125 2.4375 12.5273 1.94922 11.7539 1.60547C10.9805 1.26172 10.0586 1.08984 8.98828 1.08984H3.38672V3.71484H8.07422C8.90234 3.71484 9.54688 3.90234 10.0078 4.27734C10.4688 4.65234 10.6992 5.17578 10.6992 5.84766V5.87109C10.6992 6.59766 10.4375 7.16016 9.91406 7.55859C9.39844 7.94922 8.64844 8.14453 7.66406 8.14453H3.38672V10.5352H8.07422C8.79297 10.5352 9.39453 10.6289 9.87891 10.8164C10.3711 10.9961 10.7383 11.2656 10.9805 11.625C11.2305 11.9766 11.3555 12.4102 11.3555 12.9258V12.9492C11.3555 13.7383 11.0859 14.3398 10.5469 14.7539C10.0078 15.1602 9.23047 15.3633 8.21484 15.3633H3.38672V18ZM1.61719 18H5.15625V1.08984H1.61719V18ZM21.6328 12.1641L21.9023 7.96875H25.3477V18H28.7695V5.37891H18.9609L18.5859 11.8828C18.5469 12.6094 18.4648 13.2188 18.3398 13.7109C18.2227 14.1953 18.043 14.5586 17.8008 14.8008C17.5664 15.043 17.2461 15.1641 16.8398 15.1641C16.6836 15.1641 16.543 15.1562 16.418 15.1406C16.3008 15.125 16.207 15.1094 16.1367 15.0938V17.9648C16.2383 17.9961 16.3945 18.0273 16.6055 18.0586C16.8242 18.0977 17.0859 18.1172 17.3906 18.1172C18.4141 18.1172 19.2188 17.8789 19.8047 17.4023C20.3984 16.918 20.832 16.2305 21.1055 15.3398C21.3867 14.4414 21.5625 13.3828 21.6328 12.1641ZM35.1328 18.1992C35.6875 18.1992 36.1992 18.1172 36.668 17.9531C37.1367 17.7891 37.5547 17.5547 37.9219 17.25C38.2969 16.9453 38.6016 16.582 38.8359 16.1602H38.9297V18H42.3398V9.35156C42.3398 8.49219 42.1211 7.74609 41.6836 7.11328C41.2461 6.48047 40.6289 5.98828 39.832 5.63672C39.0352 5.28516 38.0898 5.10938 36.9961 5.10938C35.8945 5.10938 34.9414 5.28125 34.1367 5.625C33.3398 5.96094 32.7109 6.42578 32.25 7.01953C31.7969 7.60547 31.5352 8.28516 31.4648 9.05859L31.4531 9.19922H34.5938L34.6172 9.09375C34.7109 8.69531 34.9453 8.37109 35.3203 8.12109C35.7031 7.86328 36.2109 7.73438 36.8438 7.73438C37.5234 7.73438 38.0391 7.89453 38.3906 8.21484C38.75 8.53516 38.9297 8.97266 38.9297 9.52734V13.3945C38.9297 13.832 38.8125 14.2266 38.5781 14.5781C38.3438 14.9219 38.0234 15.1953 37.6172 15.3984C37.2188 15.6016 36.7617 15.7031 36.2461 15.7031C35.6523 15.7031 35.1758 15.5703 34.8164 15.3047C34.4648 15.0391 34.2891 14.6719 34.2891 14.2031V14.1914C34.2891 13.7383 34.4609 13.3789 34.8047 13.1133C35.1562 12.8398 35.668 12.6836 36.3398 12.6445L40.6992 12.3633V10.2422L35.8242 10.5469C34.2539 10.6406 33.043 11.0156 32.1914 11.6719C31.3398 12.3203 30.9141 13.2188 30.9141 14.3672V14.3906C30.9141 15.1328 31.0898 15.793 31.4414 16.3711C31.8008 16.9414 32.2969 17.3906 32.9297 17.7188C33.5625 18.0391 34.2969 18.1992 35.1328 18.1992ZM47.0039 21.3398V18H55.5117V21.3398H58.6289V15.375H56.7422V5.37891H46.6523L46.2422 11.7422C46.1875 12.5938 46.0547 13.3477 45.8438 14.0039C45.6406 14.6523 45.3086 15.1094 44.8477 15.375H43.8867V21.3398H47.0039ZM53.3203 15.375H48.3281V15.2812C48.6172 14.8594 48.832 14.3672 48.9727 13.8047C49.1211 13.2422 49.2148 12.625 49.2539 11.9531L49.5352 8.00391H53.3203V15.375ZM60.3281 18H63.6797L69.457 8.68359L67.1016 10.0195H68.7656V18H72.1289V5.37891H68.7891L63 14.6016L65.3555 13.2656H63.6914V5.37891H60.3281V18ZM74.8125 18H81.2578C82.6875 18 83.8164 17.668 84.6445 17.0039C85.4805 16.3398 85.8984 15.4609 85.8984 14.3672V14.3438C85.8984 13.8203 85.7773 13.3516 85.5352 12.9375C85.3008 12.5234 84.9688 12.1836 84.5391 11.918C84.1172 11.6523 83.6211 11.4883 83.0508 11.4258V11.3203C83.707 11.2109 84.25 10.8984 84.6797 10.3828C85.1172 9.85938 85.3359 9.26172 85.3359 8.58984V8.56641C85.3359 7.58203 84.9648 6.80469 84.2227 6.23438C83.4805 5.66406 82.4492 5.37891 81.1289 5.37891H74.8125V18ZM78.1758 15.7969V12.5742H80.1562C80.8828 12.5742 81.4336 12.707 81.8086 12.9727C82.1836 13.2305 82.3711 13.6211 82.3711 14.1445V14.168C82.3711 14.707 82.1953 15.1133 81.8438 15.3867C81.4922 15.6602 80.9844 15.7969 80.3203 15.7969H78.1758ZM78.1758 10.4766V7.57031H80.2031C80.7812 7.57031 81.2188 7.69531 81.5156 7.94531C81.8203 8.19531 81.9727 8.55078 81.9727 9.01172V9.03516C81.9727 9.51172 81.8086 9.87109 81.4805 10.1133C81.1523 10.3555 80.6719 10.4766 80.0391 10.4766H78.1758ZM93.8555 18.2578C95.1367 18.2578 96.2422 17.9961 97.1719 17.4727C98.1094 16.9492 98.832 16.1992 99.3398 15.2227C99.8477 14.2461 100.102 13.0703 100.102 11.6953V11.6719C100.102 10.3047 99.8438 9.13281 99.3281 8.15625C98.8125 7.17969 98.0859 6.42969 97.1484 5.90625C96.2188 5.375 95.1211 5.10938 93.8555 5.10938C92.5898 5.10938 91.4883 5.375 90.5508 5.90625C89.6211 6.42969 88.8984 7.18359 88.3828 8.16797C87.8672 9.14453 87.6094 10.3125 87.6094 11.6719V11.6953C87.6094 13.0625 87.8633 14.2383 88.3711 15.2227C88.8789 16.1992 89.6016 16.9492 90.5391 17.4727C91.4766 17.9961 92.582 18.2578 93.8555 18.2578ZM93.8672 15.5742C93.2969 15.5742 92.8047 15.4219 92.3906 15.1172C91.9766 14.8125 91.6562 14.3711 91.4297 13.793C91.2031 13.2148 91.0898 12.5156 91.0898 11.6953V11.6719C91.0898 10.8516 91.2031 10.1562 91.4297 9.58594C91.6562 9.00781 91.9766 8.56641 92.3906 8.26172C92.8125 7.94922 93.3008 7.79297 93.8555 7.79297C94.418 7.79297 94.9062 7.94531 95.3203 8.25C95.7344 8.55469 96.0547 8.99609 96.2812 9.57422C96.5078 10.1523 96.6211 10.8516 96.6211 11.6719V11.6953C96.6211 12.5156 96.5078 13.2148 96.2812 13.793C96.0625 14.3711 95.7461 14.8125 95.332 15.1172C94.9258 15.4219 94.4375 15.5742 93.8672 15.5742ZM107.965 18.2578C109.09 18.2578 110.062 18.0508 110.883 17.6367C111.711 17.2227 112.363 16.6562 112.84 15.9375C113.316 15.2109 113.59 14.3906 113.66 13.4766V13.3945L110.484 13.4062L110.461 13.4883C110.344 14.1289 110.074 14.6367 109.652 15.0117C109.238 15.3867 108.684 15.5742 107.988 15.5742C107.418 15.5742 106.926 15.4258 106.512 15.1289C106.098 14.8242 105.777 14.3828 105.551 13.8047C105.332 13.2188 105.223 12.5156 105.223 11.6953V11.6719C105.223 10.8594 105.332 10.1641 105.551 9.58594C105.777 9.00781 106.098 8.56641 106.512 8.26172C106.926 7.94922 107.414 7.79297 107.977 7.79297C108.688 7.79297 109.25 7.99609 109.664 8.40234C110.086 8.80078 110.352 9.30078 110.461 9.90234L110.473 9.99609H113.66L113.648 9.91406C113.594 9 113.328 8.18359 112.852 7.46484C112.383 6.73828 111.73 6.16406 110.895 5.74219C110.059 5.32031 109.074 5.10938 107.941 5.10938C106.668 5.10938 105.566 5.375 104.637 5.90625C103.715 6.42969 103 7.18359 102.492 8.16797C101.992 9.14453 101.742 10.3086 101.742 11.6602V11.6719C101.742 13.0391 101.992 14.2148 102.492 15.1992C102.992 16.1836 103.707 16.9414 104.637 17.4727C105.566 17.9961 106.676 18.2578 107.965 18.2578ZM125.566 5.37891H114.621V7.96875H118.383V18H121.805V7.96875H125.566V5.37891ZM132.949 18.2578C134.23 18.2578 135.336 17.9961 136.266 17.4727C137.203 16.9492 137.926 16.1992 138.434 15.2227C138.941 14.2461 139.195 13.0703 139.195 11.6953V11.6719C139.195 10.3047 138.938 9.13281 138.422 8.15625C137.906 7.17969 137.18 6.42969 136.242 5.90625C135.312 5.375 134.215 5.10938 132.949 5.10938C131.684 5.10938 130.582 5.375 129.645 5.90625C128.715 6.42969 127.992 7.18359 127.477 8.16797C126.961 9.14453 126.703 10.3125 126.703 11.6719V11.6953C126.703 13.0625 126.957 14.2383 127.465 15.2227C127.973 16.1992 128.695 16.9492 129.633 17.4727C130.57 17.9961 131.676 18.2578 132.949 18.2578ZM132.961 15.5742C132.391 15.5742 131.898 15.4219 131.484 15.1172C131.07 14.8125 130.75 14.3711 130.523 13.793C130.297 13.2148 130.184 12.5156 130.184 11.6953V11.6719C130.184 10.8516 130.297 10.1562 130.523 9.58594C130.75 9.00781 131.07 8.56641 131.484 8.26172C131.906 7.94922 132.395 7.79297 132.949 7.79297C133.512 7.79297 134 7.94531 134.414 8.25C134.828 8.55469 135.148 8.99609 135.375 9.57422C135.602 10.1523 135.715 10.8516 135.715 11.6719V11.6953C135.715 12.5156 135.602 13.2148 135.375 13.793C135.156 14.3711 134.84 14.8125 134.426 15.1172C134.02 15.4219 133.531 15.5742 132.961 15.5742ZM145.23 12.7148L149.145 18H153.246L147.996 10.9805V11.4258L152.953 5.37891H149.074L145.219 10.3359H144.773V5.37891H141.352V18H144.773V12.7148H145.23ZM160.207 18.2578C161.332 18.2578 162.305 18.0508 163.125 17.6367C163.953 17.2227 164.605 16.6562 165.082 15.9375C165.559 15.2109 165.832 14.3906 165.902 13.4766V13.3945L162.727 13.4062L162.703 13.4883C162.586 14.1289 162.316 14.6367 161.895 15.0117C161.48 15.3867 160.926 15.5742 160.23 15.5742C159.66 15.5742 159.168 15.4258 158.754 15.1289C158.34 14.8242 158.02 14.3828 157.793 13.8047C157.574 13.2188 157.465 12.5156 157.465 11.6953V11.6719C157.465 10.8594 157.574 10.1641 157.793 9.58594C158.02 9.00781 158.34 8.56641 158.754 8.26172C159.168 7.94922 159.656 7.79297 160.219 7.79297C160.93 7.79297 161.492 7.99609 161.906 8.40234C162.328 8.80078 162.594 9.30078 162.703 9.90234L162.715 9.99609H165.902L165.891 9.91406C165.836 9 165.57 8.18359 165.094 7.46484C164.625 6.73828 163.973 6.16406 163.137 5.74219C162.301 5.32031 161.316 5.10938 160.184 5.10938C158.91 5.10938 157.809 5.375 156.879 5.90625C155.957 6.42969 155.242 7.18359 154.734 8.16797C154.234 9.14453 153.984 10.3086 153.984 11.6602V11.6719C153.984 13.0391 154.234 14.2148 154.734 15.1992C155.234 16.1836 155.949 16.9414 156.879 17.4727C157.809 17.9961 158.918 18.2578 160.207 18.2578ZM171.832 12.7148L175.746 18H179.848L174.598 10.9805V11.4258L179.555 5.37891H175.676L171.82 10.3359H171.375V5.37891H167.953V18H171.375V12.7148H171.832ZM181.547 18H184.898L190.676 8.68359L188.32 10.0195H189.984V18H193.348V5.37891H190.008L184.219 14.6016L186.574 13.2656H184.91V5.37891H181.547V18ZM196.031 18H199.383L205.16 8.68359L202.805 10.0195H204.469V18H207.832V5.37891H204.492L198.703 14.6016L201.059 13.2656H199.395V5.37891H196.031V18ZM201.996 3.99609C202.91 3.99609 203.699 3.83984 204.363 3.52734C205.027 3.20703 205.539 2.75781 205.898 2.17969C206.266 1.60156 206.449 0.921875 206.449 0.140625V0.0351562H203.883V0.128906C203.875 0.644531 203.703 1.08984 203.367 1.46484C203.039 1.83203 202.582 2.01562 201.996 2.01562C201.402 2.01562 200.941 1.83203 200.613 1.46484C200.285 1.08984 200.117 0.644531 200.109 0.128906V0.0351562H197.543V0.140625C197.543 0.921875 197.723 1.60156 198.082 2.17969C198.449 2.75781 198.965 3.20703 199.629 3.52734C200.301 3.83984 201.09 3.99609 201.996 3.99609ZM10.125 36.957V34.3789H1.33594V47H4.75781V36.957H10.125ZM17.7305 47.2578C19.0117 47.2578 20.1172 46.9961 21.0469 46.4727C21.9844 45.9492 22.707 45.1992 23.2148 44.2227C23.7227 43.2461 23.9766 42.0703 23.9766 40.6953V40.6719C23.9766 39.3047 23.7188 38.1328 23.2031 37.1562C22.6875 36.1797 21.9609 35.4297 21.0234 34.9062C20.0938 34.375 18.9961 34.1094 17.7305 34.1094C16.4648 34.1094 15.3633 34.375 14.4258 34.9062C13.4961 35.4297 12.7734 36.1836 12.2578 37.168C11.7422 38.1445 11.4844 39.3125 11.4844 40.6719V40.6953C11.4844 42.0625 11.7383 43.2383 12.2461 44.2227C12.7539 45.1992 13.4766 45.9492 14.4141 46.4727C15.3516 46.9961 16.457 47.2578 17.7305 47.2578ZM17.7422 44.5742C17.1719 44.5742 16.6797 44.4219 16.2656 44.1172C15.8516 43.8125 15.5312 43.3711 15.3047 42.793C15.0781 42.2148 14.9648 41.5156 14.9648 40.6953V40.6719C14.9648 39.8516 15.0781 39.1562 15.3047 38.5859C15.5312 38.0078 15.8516 37.5664 16.2656 37.2617C16.6875 36.9492 17.1758 36.793 17.7305 36.793C18.293 36.793 18.7812 36.9453 19.1953 37.25C19.6094 37.5547 19.9297 37.9961 20.1562 38.5742C20.3828 39.1523 20.4961 39.8516 20.4961 40.6719V40.6953C20.4961 41.5156 20.3828 42.2148 20.1562 42.793C19.9375 43.3711 19.6211 43.8125 19.207 44.1172C18.8008 44.4219 18.3125 44.5742 17.7422 44.5742ZM31.8398 47.2578C32.9648 47.2578 33.9375 47.0508 34.7578 46.6367C35.5859 46.2227 36.2383 45.6562 36.7148 44.9375C37.1914 44.2109 37.4648 43.3906 37.5352 42.4766V42.3945L34.3594 42.4062L34.3359 42.4883C34.2188 43.1289 33.9492 43.6367 33.5273 44.0117C33.1133 44.3867 32.5586 44.5742 31.8633 44.5742C31.293 44.5742 30.8008 44.4258 30.3867 44.1289C29.9727 43.8242 29.6523 43.3828 29.4258 42.8047C29.207 42.2188 29.0977 41.5156 29.0977 40.6953V40.6719C29.0977 39.8594 29.207 39.1641 29.4258 38.5859C29.6523 38.0078 29.9727 37.5664 30.3867 37.2617C30.8008 36.9492 31.2891 36.793 31.8516 36.793C32.5625 36.793 33.125 36.9961 33.5391 37.4023C33.9609 37.8008 34.2266 38.3008 34.3359 38.9023L34.3477 38.9961H37.5352L37.5234 38.9141C37.4688 38 37.2031 37.1836 36.7266 36.4648C36.2578 35.7383 35.6055 35.1641 34.7695 34.7422C33.9336 34.3203 32.9492 34.1094 31.8164 34.1094C30.543 34.1094 29.4414 34.375 28.5117 34.9062C27.5898 35.4297 26.875 36.1836 26.3672 37.168C25.8672 38.1445 25.6172 39.3086 25.6172 40.6602V40.6719C25.6172 42.0391 25.8672 43.2148 26.3672 44.1992C26.8672 45.1836 27.582 45.9414 28.5117 46.4727C29.4414 46.9961 30.5508 47.2578 31.8398 47.2578ZM41.2148 51.207C42.1758 51.207 43.0078 51.082 43.7109 50.832C44.4219 50.5898 45.0273 50.1719 45.5273 49.5781C46.0273 48.9922 46.4453 48.1953 46.7812 47.1875L51.1055 34.3789H47.4961L44.6133 44.9961L45.1289 44.1875H44.4258L44.9297 44.9961L42.0469 34.3789H38.2969L42.75 47L42.6094 47.4336C42.4688 47.8711 42.2422 48.1797 41.9297 48.3594C41.6172 48.5391 41.1953 48.6289 40.6641 48.6289C40.4297 48.6289 40.2188 48.6172 40.0312 48.5938C39.8438 48.5781 39.6875 48.5586 39.5625 48.5352V51.0898C39.7656 51.1211 40.0156 51.1484 40.3125 51.1719C40.6094 51.1953 40.9102 51.207 41.2148 51.207ZM54.457 50.3398V47H62.9648V50.3398H66.082V44.375H64.1953V34.3789H54.1055L53.6953 40.7422C53.6406 41.5938 53.5078 42.3477 53.2969 43.0039C53.0938 43.6523 52.7617 44.1094 52.3008 44.375H51.3398V50.3398H54.457ZM60.7734 44.375H55.7812V44.2812C56.0703 43.8594 56.2852 43.3672 56.4258 42.8047C56.5742 42.2422 56.668 41.625 56.707 40.9531L56.9883 37.0039H60.7734V44.375ZM71.4609 47.1992C72.0156 47.1992 72.5273 47.1172 72.9961 46.9531C73.4648 46.7891 73.8828 46.5547 74.25 46.25C74.625 45.9453 74.9297 45.582 75.1641 45.1602H75.2578V47H78.668V38.3516C78.668 37.4922 78.4492 36.7461 78.0117 36.1133C77.5742 35.4805 76.957 34.9883 76.1602 34.6367C75.3633 34.2852 74.418 34.1094 73.3242 34.1094C72.2227 34.1094 71.2695 34.2812 70.4648 34.625C69.668 34.9609 69.0391 35.4258 68.5781 36.0195C68.125 36.6055 67.8633 37.2852 67.793 38.0586L67.7812 38.1992H70.9219L70.9453 38.0938C71.0391 37.6953 71.2734 37.3711 71.6484 37.1211C72.0312 36.8633 72.5391 36.7344 73.1719 36.7344C73.8516 36.7344 74.3672 36.8945 74.7188 37.2148C75.0781 37.5352 75.2578 37.9727 75.2578 38.5273V42.3945C75.2578 42.832 75.1406 43.2266 74.9062 43.5781C74.6719 43.9219 74.3516 44.1953 73.9453 44.3984C73.5469 44.6016 73.0898 44.7031 72.5742 44.7031C71.9805 44.7031 71.5039 44.5703 71.1445 44.3047C70.793 44.0391 70.6172 43.6719 70.6172 43.2031V43.1914C70.6172 42.7383 70.7891 42.3789 71.1328 42.1133C71.4844 41.8398 71.9961 41.6836 72.668 41.6445L77.0273 41.3633V39.2422L72.1523 39.5469C70.582 39.6406 69.3711 40.0156 68.5195 40.6719C67.668 41.3203 67.2422 42.2188 67.2422 43.3672V43.3906C67.2422 44.1328 67.418 44.793 67.7695 45.3711C68.1289 45.9414 68.625 46.3906 69.2578 46.7188C69.8906 47.0391 70.625 47.1992 71.4609 47.1992ZM81.2578 51.1367H84.6797V44.8789H84.7734C85.0078 45.3711 85.3125 45.793 85.6875 46.1445C86.0625 46.4961 86.5039 46.7695 87.0117 46.9648C87.5195 47.1523 88.0703 47.2461 88.6641 47.2461C89.7188 47.2461 90.625 46.9844 91.3828 46.4609C92.1484 45.9375 92.7383 45.1875 93.1523 44.2109C93.5664 43.2344 93.7734 42.0625 93.7734 40.6953V40.6836C93.7734 39.3164 93.5664 38.1445 93.1523 37.168C92.7383 36.1836 92.1445 35.4336 91.3711 34.918C90.6055 34.3945 89.6914 34.1328 88.6289 34.1328C88.0273 34.1328 87.4766 34.2305 86.9766 34.4258C86.4844 34.6133 86.0508 34.8867 85.6758 35.2461C85.3086 35.6055 85.0117 36.0352 84.7852 36.5352H84.6797V34.3789H81.2578V51.1367ZM87.4922 44.4102C86.9297 44.4102 86.4375 44.2617 86.0156 43.9648C85.5938 43.6602 85.2617 43.2305 85.0195 42.6758C84.7773 42.1211 84.6562 41.4609 84.6562 40.6953V40.6836C84.6562 39.918 84.7734 39.2578 85.0078 38.7031C85.25 38.1484 85.582 37.7227 86.0039 37.4258C86.4336 37.1211 86.9297 36.9688 87.4922 36.9688C88.0625 36.9688 88.5547 37.1172 88.9688 37.4141C89.3906 37.7109 89.7148 38.1367 89.9414 38.6914C90.1758 39.2461 90.293 39.9102 90.293 40.6836V40.6953C90.293 41.4609 90.1797 42.1211 89.9531 42.6758C89.7266 43.2305 89.4023 43.6602 88.9805 43.9648C88.5586 44.2617 88.0625 44.4102 87.4922 44.4102ZM101.66 47.2578C102.785 47.2578 103.758 47.0508 104.578 46.6367C105.406 46.2227 106.059 45.6562 106.535 44.9375C107.012 44.2109 107.285 43.3906 107.355 42.4766V42.3945L104.18 42.4062L104.156 42.4883C104.039 43.1289 103.77 43.6367 103.348 44.0117C102.934 44.3867 102.379 44.5742 101.684 44.5742C101.113 44.5742 100.621 44.4258 100.207 44.1289C99.793 43.8242 99.4727 43.3828 99.2461 42.8047C99.0273 42.2188 98.918 41.5156 98.918 40.6953V40.6719C98.918 39.8594 99.0273 39.1641 99.2461 38.5859C99.4727 38.0078 99.793 37.5664 100.207 37.2617C100.621 36.9492 101.109 36.793 101.672 36.793C102.383 36.793 102.945 36.9961 103.359 37.4023C103.781 37.8008 104.047 38.3008 104.156 38.9023L104.168 38.9961H107.355L107.344 38.9141C107.289 38 107.023 37.1836 106.547 36.4648C106.078 35.7383 105.426 35.1641 104.59 34.7422C103.754 34.3203 102.77 34.1094 101.637 34.1094C100.363 34.1094 99.2617 34.375 98.332 34.9062C97.4102 35.4297 96.6953 36.1836 96.1875 37.168C95.6875 38.1445 95.4375 39.3086 95.4375 40.6602V40.6719C95.4375 42.0391 95.6875 43.2148 96.1875 44.1992C96.6875 45.1836 97.4023 45.9414 98.332 46.4727C99.2617 46.9961 100.371 47.2578 101.66 47.2578ZM119.262 34.3789H108.316V36.9688H112.078V47H115.5V36.9688H119.262V34.3789ZM121.172 47H127.617C129.047 47 130.176 46.668 131.004 46.0039C131.84 45.3398 132.258 44.4609 132.258 43.3672V43.3438C132.258 42.8203 132.137 42.3516 131.895 41.9375C131.66 41.5234 131.328 41.1836 130.898 40.918C130.477 40.6523 129.98 40.4883 129.41 40.4258V40.3203C130.066 40.2109 130.609 39.8984 131.039 39.3828C131.477 38.8594 131.695 38.2617 131.695 37.5898V37.5664C131.695 36.582 131.324 35.8047 130.582 35.2344C129.84 34.6641 128.809 34.3789 127.488 34.3789H121.172V47ZM124.535 44.7969V41.5742H126.516C127.242 41.5742 127.793 41.707 128.168 41.9727C128.543 42.2305 128.73 42.6211 128.73 43.1445V43.168C128.73 43.707 128.555 44.1133 128.203 44.3867C127.852 44.6602 127.344 44.7969 126.68 44.7969H124.535ZM124.535 39.4766V36.5703H126.562C127.141 36.5703 127.578 36.6953 127.875 36.9453C128.18 37.1953 128.332 37.5508 128.332 38.0117V38.0352C128.332 38.5117 128.168 38.8711 127.84 39.1133C127.512 39.3555 127.031 39.4766 126.398 39.4766H124.535ZM140.18 47.2578C141.078 47.2578 141.863 47.1406 142.535 46.9062C143.215 46.6719 143.785 46.3594 144.246 45.9688C144.715 45.5781 145.082 45.1523 145.348 44.6914C145.621 44.2305 145.805 43.7734 145.898 43.3203L145.934 43.1914H142.781L142.758 43.2617C142.68 43.4883 142.531 43.7148 142.312 43.9414C142.102 44.1602 141.82 44.3438 141.469 44.4922C141.125 44.6328 140.719 44.7031 140.25 44.7031C139.648 44.7031 139.129 44.5742 138.691 44.3164C138.262 44.0508 137.93 43.6719 137.695 43.1797C137.461 42.6797 137.344 42.0781 137.344 41.375V40.0391C137.344 39.3203 137.461 38.7109 137.695 38.2109C137.93 37.7031 138.254 37.3203 138.668 37.0625C139.082 36.8047 139.559 36.6758 140.098 36.6758C140.629 36.6758 141.098 36.8008 141.504 37.0508C141.91 37.3008 142.227 37.6758 142.453 38.1758C142.68 38.6758 142.793 39.2969 142.793 40.0391V41.3633L144.41 39.3477H135.656V41.5039H146.039V40.4492C146.039 39.1758 145.793 38.0664 145.301 37.1211C144.816 36.168 144.125 35.4297 143.227 34.9062C142.328 34.375 141.266 34.1094 140.039 34.1094C138.805 34.1094 137.73 34.3828 136.816 34.9297C135.91 35.4688 135.207 36.2305 134.707 37.2148C134.215 38.1992 133.969 39.3594 133.969 40.6953V40.707C133.969 42.0508 134.219 43.2148 134.719 44.1992C135.219 45.1836 135.93 45.9414 136.852 46.4727C137.781 46.9961 138.891 47.2578 140.18 47.2578ZM156.434 47H159.855V34.3789H156.434V39.2422H151.617V34.3789H148.195V47H151.617V41.832H156.434V47ZM170.777 47H174.199V34.3789H170.777V39.2422H165.961V34.3789H162.539V47H165.961V41.832H170.777V47ZM176.883 47H182.766C184.258 47 185.445 46.5977 186.328 45.793C187.211 44.9805 187.652 43.8906 187.652 42.5234V42.5C187.652 41.1406 187.211 40.0586 186.328 39.2539C185.445 38.4414 184.258 38.0352 182.766 38.0352H180.305V34.3789H176.883V47ZM182.145 40.6133C182.77 40.6133 183.262 40.7852 183.621 41.1289C183.988 41.4727 184.172 41.9297 184.172 42.5V42.5234C184.172 43.0938 183.988 43.5547 183.621 43.9062C183.262 44.25 182.77 44.4219 182.145 44.4219H180.305V40.6133H182.145ZM189.117 47H192.539V34.3789H189.117V47ZM195.211 47H198.562L204.34 37.6836L201.984 39.0195H203.648V47H207.012V34.3789H203.672L197.883 43.6016L200.238 42.2656H198.574V34.3789H195.211V47ZM201.176 32.9961C202.09 32.9961 202.879 32.8398 203.543 32.5273C204.207 32.207 204.719 31.7578 205.078 31.1797C205.445 30.6016 205.629 29.9219 205.629 29.1406V29.0352H203.062V29.1289C203.055 29.6445 202.883 30.0898 202.547 30.4648C202.219 30.832 201.762 31.0156 201.176 31.0156C200.582 31.0156 200.121 30.832 199.793 30.4648C199.465 30.0898 199.297 29.6445 199.289 29.1289V29.0352H196.723V29.1406C196.723 29.9219 196.902 30.6016 197.262 31.1797C197.629 31.7578 198.145 32.207 198.809 32.5273C199.48 32.8398 200.27 32.9961 201.176 32.9961ZM3.19922 80.207C4.16016 80.207 4.99219 80.082 5.69531 79.832C6.40625 79.5898 7.01172 79.1719 7.51172 78.5781C8.01172 77.9922 8.42969 77.1953 8.76562 76.1875L13.0898 63.3789H9.48047L6.59766 73.9961L7.11328 73.1875H6.41016L6.91406 73.9961L4.03125 63.3789H0.28125L4.73438 76L4.59375 76.4336C4.45312 76.8711 4.22656 77.1797 3.91406 77.3594C3.60156 77.5391 3.17969 77.6289 2.64844 77.6289C2.41406 77.6289 2.20312 77.6172 2.01562 77.5938C1.82812 77.5781 1.67188 77.5586 1.54688 77.5352V80.0898C1.75 80.1211 2 80.1484 2.29688 80.1719C2.59375 80.1953 2.89453 80.207 3.19922 80.207ZM22.957 76H26.3789V63.3789H22.957V68.2422H18.1406V63.3789H14.7188V76H18.1406V70.832H22.957V76ZM29.0625 76H32.4141L38.1914 66.6836L35.8359 68.0195H37.5V76H40.8633V63.3789H37.5234L31.7344 72.6016L34.0898 71.2656H32.4258V63.3789H29.0625V76ZM43.5469 76H49.9922C51.4219 76 52.5508 75.668 53.3789 75.0039C54.2148 74.3398 54.6328 73.4609 54.6328 72.3672V72.3438C54.6328 71.8203 54.5117 71.3516 54.2695 70.9375C54.0352 70.5234 53.7031 70.1836 53.2734 69.918C52.8516 69.6523 52.3555 69.4883 51.7852 69.4258V69.3203C52.4414 69.2109 52.9844 68.8984 53.4141 68.3828C53.8516 67.8594 54.0703 67.2617 54.0703 66.5898V66.5664C54.0703 65.582 53.6992 64.8047 52.957 64.2344C52.2148 63.6641 51.1836 63.3789 49.8633 63.3789H43.5469V76ZM46.9102 73.7969V70.5742H48.8906C49.6172 70.5742 50.168 70.707 50.543 70.9727C50.918 71.2305 51.1055 71.6211 51.1055 72.1445V72.168C51.1055 72.707 50.9297 73.1133 50.5781 73.3867C50.2266 73.6602 49.7188 73.7969 49.0547 73.7969H46.9102ZM46.9102 68.4766V65.5703H48.9375C49.5156 65.5703 49.9531 65.6953 50.25 65.9453C50.5547 66.1953 50.707 66.5508 50.707 67.0117V67.0352C50.707 67.5117 50.543 67.8711 50.2148 68.1133C49.8867 68.3555 49.4062 68.4766 48.7734 68.4766H46.9102ZM62.5547 76.2578C63.4531 76.2578 64.2383 76.1406 64.9102 75.9062C65.5898 75.6719 66.1602 75.3594 66.6211 74.9688C67.0898 74.5781 67.457 74.1523 67.7227 73.6914C67.9961 73.2305 68.1797 72.7734 68.2734 72.3203L68.3086 72.1914H65.1562L65.1328 72.2617C65.0547 72.4883 64.9062 72.7148 64.6875 72.9414C64.4766 73.1602 64.1953 73.3438 63.8438 73.4922C63.5 73.6328 63.0938 73.7031 62.625 73.7031C62.0234 73.7031 61.5039 73.5742 61.0664 73.3164C60.6367 73.0508 60.3047 72.6719 60.0703 72.1797C59.8359 71.6797 59.7188 71.0781 59.7188 70.375V69.0391C59.7188 68.3203 59.8359 67.7109 60.0703 67.2109C60.3047 66.7031 60.6289 66.3203 61.043 66.0625C61.457 65.8047 61.9336 65.6758 62.4727 65.6758C63.0039 65.6758 63.4727 65.8008 63.8789 66.0508C64.2852 66.3008 64.6016 66.6758 64.8281 67.1758C65.0547 67.6758 65.168 68.2969 65.168 69.0391V70.3633L66.7852 68.3477H58.0312V70.5039H68.4141V69.4492C68.4141 68.1758 68.168 67.0664 67.6758 66.1211C67.1914 65.168 66.5 64.4297 65.6016 63.9062C64.7031 63.375 63.6406 63.1094 62.4141 63.1094C61.1797 63.1094 60.1055 63.3828 59.1914 63.9297C58.2852 64.4688 57.582 65.2305 57.082 66.2148C56.5898 67.1992 56.3438 68.3594 56.3438 69.6953V69.707C56.3438 71.0508 56.5938 72.2148 57.0938 73.1992C57.5938 74.1836 58.3047 74.9414 59.2266 75.4727C60.1562 75.9961 61.2656 76.2578 62.5547 76.2578ZM70.5469 80.1367H73.9688V73.8789H74.0625C74.2969 74.3711 74.6016 74.793 74.9766 75.1445C75.3516 75.4961 75.793 75.7695 76.3008 75.9648C76.8086 76.1523 77.3594 76.2461 77.9531 76.2461C79.0078 76.2461 79.9141 75.9844 80.6719 75.4609C81.4375 74.9375 82.0273 74.1875 82.4414 73.2109C82.8555 72.2344 83.0625 71.0625 83.0625 69.6953V69.6836C83.0625 68.3164 82.8555 67.1445 82.4414 66.168C82.0273 65.1836 81.4336 64.4336 80.6602 63.918C79.8945 63.3945 78.9805 63.1328 77.918 63.1328C77.3164 63.1328 76.7656 63.2305 76.2656 63.4258C75.7734 63.6133 75.3398 63.8867 74.9648 64.2461C74.5977 64.6055 74.3008 65.0352 74.0742 65.5352H73.9688V63.3789H70.5469V80.1367ZM76.7812 73.4102C76.2188 73.4102 75.7266 73.2617 75.3047 72.9648C74.8828 72.6602 74.5508 72.2305 74.3086 71.6758C74.0664 71.1211 73.9453 70.4609 73.9453 69.6953V69.6836C73.9453 68.918 74.0625 68.2578 74.2969 67.7031C74.5391 67.1484 74.8711 66.7227 75.293 66.4258C75.7227 66.1211 76.2188 65.9688 76.7812 65.9688C77.3516 65.9688 77.8438 66.1172 78.2578 66.4141C78.6797 66.7109 79.0039 67.1367 79.2305 67.6914C79.4648 68.2461 79.582 68.9102 79.582 69.6836V69.6953C79.582 70.4609 79.4688 71.1211 79.2422 71.6758C79.0156 72.2305 78.6914 72.6602 78.2695 72.9648C77.8477 73.2617 77.3516 73.4102 76.7812 73.4102ZM90.9492 76.2578C92.0742 76.2578 93.0469 76.0508 93.8672 75.6367C94.6953 75.2227 95.3477 74.6562 95.8242 73.9375C96.3008 73.2109 96.5742 72.3906 96.6445 71.4766V71.3945L93.4688 71.4062L93.4453 71.4883C93.3281 72.1289 93.0586 72.6367 92.6367 73.0117C92.2227 73.3867 91.668 73.5742 90.9727 73.5742C90.4023 73.5742 89.9102 73.4258 89.4961 73.1289C89.082 72.8242 88.7617 72.3828 88.5352 71.8047C88.3164 71.2188 88.207 70.5156 88.207 69.6953V69.6719C88.207 68.8594 88.3164 68.1641 88.5352 67.5859C88.7617 67.0078 89.082 66.5664 89.4961 66.2617C89.9102 65.9492 90.3984 65.793 90.9609 65.793C91.6719 65.793 92.2344 65.9961 92.6484 66.4023C93.0703 66.8008 93.3359 67.3008 93.4453 67.9023L93.457 67.9961H96.6445L96.6328 67.9141C96.5781 67 96.3125 66.1836 95.8359 65.4648C95.3672 64.7383 94.7148 64.1641 93.8789 63.7422C93.043 63.3203 92.0586 63.1094 90.9258 63.1094C89.6523 63.1094 88.5508 63.375 87.6211 63.9062C86.6992 64.4297 85.9844 65.1836 85.4766 66.168C84.9766 67.1445 84.7266 68.3086 84.7266 69.6602V69.6719C84.7266 71.0391 84.9766 72.2148 85.4766 73.1992C85.9766 74.1836 86.6914 74.9414 87.6211 75.4727C88.5508 75.9961 89.6602 76.2578 90.9492 76.2578ZM98.6953 76H102.047L107.824 66.6836L105.469 68.0195H107.133V76H110.496V63.3789H107.156L101.367 72.6016L103.723 71.2656H102.059V63.3789H98.6953V76ZM123.363 63.3789H112.418V65.9688H116.18V76H119.602V65.9688H123.363V63.3789ZM130.711 76.2578C131.609 76.2578 132.395 76.1406 133.066 75.9062C133.746 75.6719 134.316 75.3594 134.777 74.9688C135.246 74.5781 135.613 74.1523 135.879 73.6914C136.152 73.2305 136.336 72.7734 136.43 72.3203L136.465 72.1914H133.312L133.289 72.2617C133.211 72.4883 133.062 72.7148 132.844 72.9414C132.633 73.1602 132.352 73.3438 132 73.4922C131.656 73.6328 131.25 73.7031 130.781 73.7031C130.18 73.7031 129.66 73.5742 129.223 73.3164C128.793 73.0508 128.461 72.6719 128.227 72.1797C127.992 71.6797 127.875 71.0781 127.875 70.375V69.0391C127.875 68.3203 127.992 67.7109 128.227 67.2109C128.461 66.7031 128.785 66.3203 129.199 66.0625C129.613 65.8047 130.09 65.6758 130.629 65.6758C131.16 65.6758 131.629 65.8008 132.035 66.0508C132.441 66.3008 132.758 66.6758 132.984 67.1758C133.211 67.6758 133.324 68.2969 133.324 69.0391V70.3633L134.941 68.3477H126.188V70.5039H136.57V69.4492C136.57 68.1758 136.324 67.0664 135.832 66.1211C135.348 65.168 134.656 64.4297 133.758 63.9062C132.859 63.375 131.797 63.1094 130.57 63.1094C129.336 63.1094 128.262 63.3828 127.348 63.9297C126.441 64.4688 125.738 65.2305 125.238 66.2148C124.746 67.1992 124.5 68.3594 124.5 69.6953V69.707C124.5 71.0508 124.75 72.2148 125.25 73.1992C125.75 74.1836 126.461 74.9414 127.383 75.4727C128.312 75.9961 129.422 76.2578 130.711 76.2578ZM148.488 63.3789H137.543V65.9688H141.305V76H144.727V65.9688H148.488V63.3789Z" fill="#0B73B9"/>
</svg>
