<svg width="219" height="78" viewBox="0 0 219 78" fill="none" xmlns="http://www.w3.org/2000/svg">
<path d="M7.077 0.617699C5.80476 1.2971 5.25346 2.65589 5.55031 4.5667C5.71995 5.75564 5.71995 5.7981 4.74456 5.16116C3.51473 4.35438 0.970255 4.73654 0.376543 5.88303C-0.683656 7.87875 0.630991 10.9785 2.62416 10.9785C3.21788 10.9785 3.26028 11.1483 2.92102 12.0825C2.2849 13.6961 2.41212 15.0124 3.26028 15.7767C4.4053 16.7958 5.88958 16.6684 7.20422 15.3946L8.34924 14.2906L8.43406 22.6981C8.43406 27.3689 8.34924 31.785 8.17961 32.5493C7.92516 33.8657 7.88275 33.9081 7.11941 33.2287C6.48329 32.6343 6.31366 32.6343 6.27125 33.1013C6.14403 34.6724 6.5257 36.0312 7.75553 38.5365C10.6393 44.4812 16.746 49.3219 26.0334 52.9737C26.9239 53.3134 27.7721 54.29 28.7899 56.0734C30.359 58.791 34.4301 62.8674 36.7202 63.9714L38.1196 64.6083L38.2044 71.2325C38.3317 77.1347 38.4165 77.8566 39.095 77.984C39.7735 78.1113 39.8159 77.6018 39.8159 71.9543C39.8159 68.4724 39.9856 65.7548 40.1976 65.7548C40.4097 65.7548 41.4699 66.137 42.5725 66.6041L44.5232 67.4533L44.4384 72.6337C44.3536 77.5593 44.396 77.8566 45.1593 77.8566C45.8803 77.8566 45.9651 77.4744 46.0923 72.846C46.2195 67.1561 45.8379 67.4958 50.63 68.5149C54.8708 69.449 64.455 70.1284 68.6534 69.7887C72.5125 69.534 75.4386 68.897 75.4386 68.3875C75.4386 68.2176 74.336 67.5382 73.0214 66.8588C71.6643 66.2219 68.6534 64.6083 66.3209 63.292L62.0801 60.8717L65.3879 60.7443C67.1691 60.6593 68.6534 60.4895 68.6534 60.2772C68.6534 60.1073 67.6356 59.3006 66.4481 58.4938C62.2497 55.8186 58.009 51.2327 52.5807 43.5471C49.8242 39.683 46.474 36.8805 44.608 36.8805C43.7175 36.8805 43.6327 36.6682 43.6327 34.63C43.6327 33.441 44.0143 30.129 44.4808 27.3265C45.5834 20.49 45.5834 16.8807 44.4384 14.5029C42.8693 11.2333 40.6217 10.7237 33.4548 11.9976C24.6763 13.5687 22.7679 14.0782 21.4109 15.4795C19.8842 16.9657 20.5203 17.3054 24.8883 17.2629C32.2673 17.178 32.9459 18.0697 30.6982 24.5664C29.8501 27.0292 28.4082 31.3179 27.56 34.1204L25.9485 39.2159L21.9622 39.1734C18.5271 39.1734 17.5094 38.9611 14.5832 37.8146C8.77332 35.5217 9.28221 36.6682 9.28221 25.4157C9.28221 16.5835 9.53666 14.333 10.3424 15.6493C10.8937 16.4986 13.0141 16.1164 13.9047 14.9699C14.9649 13.6112 15.0073 12.7619 14.1167 11.488C13.6078 10.7237 13.5654 10.5539 14.0743 10.5539C15.0497 10.5539 16.0675 9.11015 16.0675 7.7089C16.0675 6.05287 14.8801 5.03378 12.9717 5.03378C11.5722 5.03378 11.4026 4.90639 11.4026 3.97222C11.4026 2.44358 10.5969 0.957397 9.40944 0.405388C8.22202 -0.146622 8.47646 -0.189079 7.077 0.617699ZM9.32462 1.6368C10.8513 2.48604 10.0031 6.47749 8.34924 6.22272C6.99218 6.05287 6.39847 3.71745 7.33145 2.27373C8.1372 1.08479 8.17961 1.04233 9.32462 1.6368ZM4.82938 6.60488C6.39847 7.32674 6.48329 7.49659 6.05921 8.60061C5.71995 9.44985 1.69119 9.57724 1.60637 8.728C1.47915 7.3692 2.15768 5.88303 2.96343 5.88303C3.17547 5.88303 3.98122 6.22272 4.82938 6.60488ZM14.5832 7.75137C14.5832 9.36493 13.523 10.0443 12.0811 9.36493C10.0031 8.43076 11.1058 6.18026 13.523 6.43504C14.3712 6.51996 14.5832 6.73227 14.5832 7.75137ZM9.91833 9.02523C9.91833 10.2566 8.60369 10.8936 7.79794 10.0868C6.82255 9.11015 7.41626 7.92121 8.81573 8.09106C9.57907 8.17599 9.91833 8.47322 9.91833 9.02523ZM7.33145 12.6345C7.20422 13.0167 7.03459 13.5687 7.03459 13.8659C7.03459 14.5878 5.29587 15.437 4.49011 15.0973C3.21788 14.6302 3.3451 13.0167 4.70215 11.7428C5.93199 10.5963 6.05921 10.5539 6.82255 11.2757C7.28904 11.7004 7.50108 12.2524 7.33145 12.6345ZM12.59 11.488C13.3534 12.2524 13.2262 13.7385 12.3356 14.5029C11.6995 15.0973 11.445 15.0973 10.8937 14.6727C10.1728 14.0782 9.23981 11.6154 9.57907 11.2333C10.0456 10.7662 12.0811 10.9785 12.59 11.488ZM41.0458 13.7385C41.7243 14.0782 42.5725 15.0124 42.9541 15.8192C43.8023 17.6451 43.8447 22.1461 42.9965 25.628C42.6573 27.0292 42.2756 29.7044 42.1484 31.5727C41.8091 36.0737 41.5971 36.8805 40.8761 36.8805C39.9856 36.8805 38.162 38.9611 37.1866 41.0418C36.1689 43.2923 36.4233 45.3729 38.1196 48.7699C40.6217 53.6955 45.7955 57.2199 53.3017 59.1732C56.7367 60.0224 58.8995 60.9566 63.0555 63.292C66.0241 64.948 69.0774 66.5616 69.8408 66.9013C72.5125 68.0053 70.901 68.345 63.2251 68.1327C55.3797 67.9629 51.7326 67.4533 45.4562 65.5425C40.4521 64.0139 38.6709 63.1646 35.66 60.8717C30.8255 57.2199 28.0265 51.997 27.6449 45.9674C27.3056 40.8719 27.8993 37.7722 30.9527 28.6853C34.2181 18.8765 34.2181 17.2204 30.9527 16.1164C29.1291 15.522 23.913 15.522 22.8104 16.074C22.3439 16.3712 22.0046 16.3712 22.0046 16.1164C22.0046 15.6918 24.2946 15.0973 30.4862 13.9509C35.5751 12.9742 39.4767 12.9318 41.0458 13.7385Z" fill="black"/>
<path d="M36.1689 14.97C36.0417 15.3522 36.0417 16.159 36.1689 16.7534C36.3809 17.6027 36.6778 17.815 37.5684 17.6876C39.0102 17.5178 39.7736 16.3713 39.1375 15.3097C38.5013 14.3331 36.5082 14.1208 36.1689 14.97Z" fill="black"/>
<path d="M119.161 43.929C116.829 45.8822 115.302 50.0435 116.913 50.0435C117.422 50.0435 117.889 49.3641 118.398 47.9204C118.822 46.689 119.585 45.5001 120.221 45.0754C121.621 44.1837 124.589 44.1837 125.989 45.1179C127.94 46.3918 128.576 49.7888 127.388 52.379C126.625 53.9925 125.48 54.587 122.511 54.9692C119.543 55.3513 119.755 56.243 122.935 56.5827C126.583 57.0073 128.067 58.3661 128.364 61.5933C128.661 65.5423 126.71 67.8777 123.063 67.8777C120.688 67.8777 118.949 66.6038 118.059 64.3109C117.55 62.9521 117.083 62.3576 116.489 62.3576C115.853 62.3576 115.768 62.5699 115.981 63.5041C116.871 67.2832 119.628 69.5762 123.232 69.5762C127.473 69.5762 130.145 66.7737 130.145 62.2302C130.145 59.3003 129.339 57.6443 127.346 56.5827L125.946 55.8184L127.346 54.8418C130.526 52.7187 130.526 46.9862 127.431 44.0988C126.498 43.2496 125.734 43.0373 123.402 42.9099C120.773 42.74 120.433 42.8249 119.161 43.929Z" fill="black"/>
<path d="M84.344 56.2004C84.344 68.8541 84.344 69.1514 85.1922 69.1514C85.9979 69.1514 86.0403 68.8541 86.0403 64.0559V58.9604H89.2209C93.4193 58.9604 95.5397 57.9413 96.6847 55.4361C97.8297 52.8883 97.7449 49.0667 96.5575 46.6464C95.1156 43.9288 93.5465 43.2494 88.5 43.2494H84.344V56.2004ZM92.0198 44.9479C94.5219 45.6273 95.4973 47.071 95.7093 50.2557C95.9214 53.3979 95.3701 55.1813 93.7586 56.4127C92.9104 57.0921 92.0622 57.2619 89.3905 57.2619H86.0403V51.1898C86.0403 47.8353 86.1675 44.9479 86.3372 44.8205C86.7612 44.3959 90.2811 44.4808 92.0198 44.9479Z" fill="black"/>
<path d="M104.573 45.4574C104.191 46.6888 102.749 52.2089 101.307 57.6866C99.8656 63.1642 98.5933 68.0049 98.5085 68.387C98.3389 68.9391 98.5085 69.1514 99.1446 69.1514C99.9928 69.1514 100.544 67.835 101.477 63.5039L101.774 62.3149L106.1 62.4423L110.425 62.5697L111.273 65.8393C111.994 68.6843 112.206 69.1514 113.012 69.1514H113.945L113.097 66.0516C111.613 60.4466 108.941 50.2981 108.05 46.7313C107.245 43.6315 107.033 43.2494 106.142 43.2494C105.336 43.2494 105.082 43.6315 104.573 45.4574ZM108.093 53.228C109.026 56.9647 109.789 60.2768 109.789 60.5315C109.789 60.9561 108.729 61.0835 105.93 61.0835C102.495 61.0835 102.113 60.9986 102.325 60.3192C102.452 59.9371 103.131 57.2195 103.852 54.2896C105.718 46.6888 106.057 45.5423 106.227 46.0094C106.312 46.2217 107.16 49.4913 108.093 53.228Z" fill="black"/>
<path d="M134.81 56.2004V69.1514H138.966C143.716 69.1514 145.454 68.5144 146.981 66.2639C149.059 63.1217 148.338 58.3235 145.539 56.5825C144.903 56.1579 144.267 55.7758 144.182 55.6908C144.055 55.6059 144.394 55.2662 144.903 54.884C148.253 52.5486 147.66 45.6697 143.97 43.9288C142.952 43.4617 141.383 43.2494 138.669 43.2494H134.81V56.2004ZM142.062 44.9479C144.267 45.5423 145.115 46.6888 145.285 49.3215C145.582 53.3554 143.546 55.1388 138.542 55.1388H136.506V49.831V44.5233H138.542C139.645 44.5233 141.214 44.7356 142.062 44.9479ZM143.885 57.4318C146.26 58.9604 147.066 61.9328 145.879 64.8202C145.073 66.7735 143.504 67.4529 139.687 67.4529H136.506V61.8903V56.2853L139.645 56.4976C141.595 56.625 143.249 56.9647 143.885 57.4318Z" fill="black"/>
<path d="M152.197 56.2004V69.1514H153.173C154.021 69.1514 154.445 68.5569 155.887 65.4147C156.82 63.3765 159.067 58.4084 160.933 54.3745L164.284 47.0285L164.411 58.1112C164.496 68.8117 164.538 69.1514 165.344 69.1514C166.192 69.1514 166.192 68.8117 166.192 56.2004V43.2494H165.174C164.284 43.2494 163.775 44.0986 160.424 51.6144C158.346 56.2428 156.056 61.2534 155.293 62.782L153.936 65.5421V54.3745C153.894 43.5466 153.851 43.2494 153.045 43.2494C152.197 43.2494 152.197 43.5466 152.197 56.2004Z" fill="black"/>
<path d="M170.009 43.8863C170.009 44.3534 170.687 44.5233 172.892 44.6082L175.734 44.7356L175.861 56.9222C175.946 67.368 176.03 69.1514 176.582 69.1514C177.133 69.1514 177.218 67.368 177.303 56.9222L177.43 44.7356L180.314 44.6082C182.476 44.5233 183.155 44.3534 183.155 43.8863C183.155 43.3343 182.052 43.2494 176.582 43.2494C171.111 43.2494 170.009 43.3343 170.009 43.8863Z" fill="black"/>
<path d="M186.972 56.2004V69.1514H187.947C188.838 69.1514 189.516 67.9624 194.011 58.0687L199.058 46.9861L199.185 58.0687C199.27 68.8117 199.312 69.1514 200.118 69.1514C200.966 69.1514 200.966 68.8117 200.966 56.2004V43.2494H199.949C199.058 43.2494 198.464 44.3959 193.927 54.3745L188.88 65.4996L188.753 54.3745C188.668 43.5891 188.626 43.2494 187.82 43.2494C186.972 43.2494 186.972 43.5891 186.972 56.2004Z" fill="black"/>
<path d="M206.903 56.2004V69.1514H212.798C217.463 69.1514 218.735 69.024 218.905 68.5569C219.032 68.2172 219.032 67.835 218.905 67.7076C218.735 67.5803 216.36 67.4529 213.604 67.4529H208.6V62.1451V56.8373H213.265C217.633 56.8373 217.929 56.7948 217.929 55.9881C217.929 55.1813 217.633 55.1388 213.265 55.1388H208.6V49.831V44.5233H213.689C217.929 44.5233 218.778 44.3959 218.778 43.8863C218.778 43.3343 217.845 43.2494 212.84 43.2494H206.903V56.2004Z" fill="black"/>
</svg>
