<svg width="255" height="45" viewBox="0 0 255 45" fill="none" xmlns="http://www.w3.org/2000/svg">
<path d="M52.2725 25.113C49.7767 35.1098 56.2137 44.3713 69.705 44.7127H90.2874L96.6698 31.2112H78.7964C74.8279 31.2112 74.3169 29.0508 74.3169 29.0508H97.7068L104.097 15.606H81.4208C81.6097 15.3275 83.3757 13.4312 86.1083 13.4312H105.118L111.468 0.0507629C111.468 0.0497055 88.2679 0.0507629 88.2679 0.0507629C72.3045 0.0497055 55.3002 12.9781 52.2725 25.113Z" fill="#C9CACB"/>
<path d="M153.117 25.113C150.618 35.1098 157.048 44.3713 170.527 44.7127H190.418L196.81 31.2112H179.635C169.326 31.2112 174.142 13.4312 192.247 13.4312H204.371L210.72 0.0507629C210.72 0.0497055 189.1 0.0507629 189.1 0.0507629C170.654 0.0497055 156.123 12.9781 153.117 25.113Z" fill="#C9CACB"/>
<path d="M161.919 0.0507812H139.14C125.133 0.0507812 109.474 9.81476 103.654 22.1218L100.355 29.0508H121.27C121.27 29.4608 119.381 31.2223 116.021 31.2223L99.3227 31.2547L92.9261 44.7177L116.463 44.7128C128.861 44.7128 144.677 36.4753 150.101 25.0038L154.544 15.615L132.128 15.6075C132.128 14.9772 134.139 13.6192 136.349 13.6192L155.493 13.6253L161.919 0.0507812Z" fill="#C9CACB"/>
<path d="M254.396 10.7284C251.239 0.138031 236.638 -3.17053 221.775 3.32763C215.529 6.05257 210.231 10.092 206.428 14.6417C207.947 14.8164 209.476 15.0762 211.024 15.4291C212.283 15.7313 213.454 16.0716 214.69 16.4604C218.664 17.6538 223.168 19.0204 232.089 18.6949C232.102 18.6949 231.226 20.5074 231.226 20.5074C222.473 20.8427 217.929 19.4994 214.05 18.3273C212.78 17.9622 211.584 17.5845 210.281 17.306C202.701 15.5329 195.274 16.136 188.113 18.1875L186.89 20.7622C194.396 18.2331 201.933 17.8802 209.889 19.7251C211.14 20.0122 212.316 20.3637 213.554 20.7489C217.396 21.9125 221.738 23.2061 230.06 22.9955L229.202 24.8046C220.945 25.0359 216.679 23.7585 212.917 22.6456C211.642 22.2467 210.453 21.9013 209.143 21.593C201.182 19.7596 193.444 20.428 185.932 22.7789L184.708 25.4172C192.563 22.5514 200.422 22.1105 208.753 24.037C210.015 24.3327 211.181 24.6781 212.421 25.0285C216.115 26.1697 220.277 27.4303 228.003 27.3312L227.139 29.1376C219.323 29.2576 215.168 28.006 211.486 26.9226C210.199 26.5216 208.984 26.1787 207.654 25.869C199.501 24.0305 191.59 24.6856 183.886 27.1109L182.643 29.7068C188.357 27.6704 194.237 26.8953 200.132 27.2704C199.664 29.7715 199.854 31.8277 200.57 34.2688C203.729 44.8502 218.331 48.1864 233.196 41.6574C248.054 35.1467 257.548 21.2994 254.396 10.7284Z" fill="#C9CACB"/>
<path d="M53.6759 15.6073H37.6425C37.8694 14.8099 39.9681 13.4311 43.882 13.4311H54.6929L61.0486 0.0517731C61.0486 0.0506401 45.7643 0.0517731 45.7643 0.0517731C31.3102 0.0506401 16.5501 10.0834 9.98211 23.6446L0 44.7126H20.567L27.7091 29.0506H47.3L53.6759 15.6073Z" fill="#C9CACB"/>
</svg>
