<svg width="25" height="25" viewBox="0 0 25 25" fill="none" xmlns="http://www.w3.org/2000/svg">
<path d="M4.63864 0C3.40987 0.00478824 2.23279 0.495038 1.36392 1.36392C0.495038 2.23279 0.00478824 3.40987 0 4.63864V20.3614C0.00478824 21.5901 0.495038 22.7672 1.36392 23.6361C2.23279 24.505 3.40987 24.9952 4.63864 25H20.3614C21.5901 24.9952 22.7672 24.505 23.6361 23.6361C24.505 22.7672 24.9952 21.5901 25 20.3614V4.63864C24.9952 3.40987 24.505 2.23279 23.6361 1.36392C22.7672 0.495038 21.5901 0.00478824 20.3614 0H4.63864ZM4.63864 2.27273H20.3614C20.6726 2.27092 20.981 2.33088 21.2689 2.44914C21.5568 2.56739 21.8183 2.7416 22.0383 2.96165C22.2584 3.18171 22.4326 3.44324 22.5509 3.73111C22.6691 4.01897 22.7291 4.32744 22.7273 4.63864V20.3614C22.7291 20.6726 22.6691 20.981 22.5509 21.2689C22.4326 21.5568 22.2584 21.8183 22.0383 22.0383C21.8183 22.2584 21.5568 22.4326 21.2689 22.5509C20.981 22.6691 20.6726 22.7291 20.3614 22.7273H4.63864C4.32739 22.7292 4.01886 22.6694 3.73093 22.5512C3.44299 22.433 3.1814 22.2588 2.96131 22.0387C2.74123 21.8186 2.56703 21.557 2.44883 21.2691C2.33062 20.9811 2.27077 20.6726 2.27273 20.3614V4.63864C2.27092 4.32744 2.33088 4.01897 2.44914 3.73111C2.56739 3.44324 2.7416 3.18171 2.96165 2.96165C3.18171 2.7416 3.44324 2.56739 3.73111 2.44914C4.01897 2.33088 4.32744 2.27092 4.63864 2.27273ZM12.1807 8.21591C11.3455 8.20795 10.6352 8.21591 10.2364 8.41136C9.96932 8.54091 9.76591 8.83295 9.88977 8.84659C10.0455 8.86932 10.3955 8.94432 10.583 9.19773C10.8216 9.52159 10.8136 10.2545 10.8136 10.2545C10.8136 10.2545 10.9466 12.2693 10.4886 12.5227C10.1739 12.6955 9.74318 12.3443 8.81136 10.742C8.33636 9.91705 7.97727 9.00682 7.97727 9.00682C7.97727 9.00682 7.90909 8.8375 7.78636 8.74886C7.63523 8.63864 7.42614 8.60227 7.42614 8.60227L5.20227 8.61591C5.20227 8.61591 4.86932 8.62955 4.75 8.77159C4.63864 8.90454 4.74091 9.16591 4.74091 9.16591C4.74091 9.16591 6.48068 13.2364 8.45114 15.2875C10.258 17.1705 12.3091 17.0455 12.3091 17.0455H13.2409C13.2409 17.0455 13.5205 17.0148 13.6625 16.8636C13.7966 16.7216 13.792 16.4545 13.792 16.4545C13.792 16.4545 13.7739 15.208 14.3511 15.0216C14.9239 14.8432 15.6511 16.2284 16.4284 16.7614C17.0193 17.1648 17.467 17.0761 17.467 17.0761L19.5455 17.0455C19.5455 17.0455 20.6284 16.9784 20.1136 16.1216C20.0739 16.0557 19.8159 15.492 18.5739 14.3375C17.2682 13.1307 17.442 13.3261 19.0125 11.2352C19.967 9.96136 20.3489 9.18409 20.2284 8.84659C20.1148 8.53182 19.4125 8.61591 19.4125 8.61591L17.0727 8.62955C17.0727 8.62955 16.9 8.60682 16.7716 8.68295C16.6833 8.74853 16.613 8.83529 16.567 8.93523C16.567 8.93523 16.1943 9.92045 15.7011 10.7602C14.6625 12.5261 14.2409 12.6239 14.0727 12.5136C13.6773 12.2557 13.775 11.483 13.775 10.9375C13.775 9.21932 14.0364 8.50909 13.2693 8.32386C13.0159 8.26136 12.8295 8.22159 12.1818 8.21591H12.1807Z" fill="#263238"/>
</svg>
