<svg width="219" height="78" viewBox="0 0 219 78" fill="none" xmlns="http://www.w3.org/2000/svg">
<path d="M7.077 0.617622C5.80476 1.29702 5.25345 2.65581 5.55031 4.56661C5.71994 5.75556 5.71994 5.79802 4.74456 5.16109C3.51473 4.3543 0.970254 4.73647 0.376543 5.88295C-0.683655 7.87868 0.630991 10.9784 2.62416 10.9784C3.21787 10.9784 3.26028 11.1483 2.92102 12.0824C2.2849 13.696 2.41212 15.0123 3.26028 15.7767C4.4053 16.7958 5.88957 16.6684 7.20422 15.3945L8.34923 14.2905L8.43405 22.698C8.43405 27.3689 8.34923 31.785 8.1796 32.5493C7.92515 33.8656 7.88275 33.9081 7.1194 33.2287C6.48328 32.6342 6.31365 32.6342 6.27125 33.1013C6.14402 34.6724 6.52569 36.0312 7.75552 38.5365C10.6393 44.4812 16.746 49.3219 26.0333 52.9736C26.9239 53.3133 27.7721 54.29 28.7899 56.0734C30.3589 58.791 34.4301 62.8674 36.7201 63.9714L38.1196 64.6083L38.2044 71.2324C38.3316 77.1347 38.4165 77.8566 39.095 77.984C39.7735 78.1113 39.8159 77.6018 39.8159 71.9543C39.8159 68.4724 39.9855 65.7548 40.1976 65.7548C40.4096 65.7548 41.4698 66.137 42.5724 66.6041L44.5232 67.4533L44.4384 72.6337C44.3536 77.5593 44.396 77.8566 45.1593 77.8566C45.8802 77.8566 45.9651 77.4744 46.0923 72.846C46.2195 67.1561 45.8378 67.4958 50.6299 68.5149C54.8707 69.449 64.4549 70.1284 68.6533 69.7887C72.5124 69.534 75.4386 68.897 75.4386 68.3875C75.4386 68.2176 74.336 67.5382 73.0213 66.8588C71.6643 66.2219 68.6533 64.6083 66.3209 63.292L62.0801 60.8716L65.3879 60.7443C67.169 60.6593 68.6533 60.4895 68.6533 60.2772C68.6533 60.1073 67.6355 59.3005 66.4481 58.4938C62.2497 55.8186 58.0089 51.2327 52.5807 43.547C49.8242 39.6829 46.474 36.8804 44.608 36.8804C43.7174 36.8804 43.6326 36.6681 43.6326 34.6299C43.6326 33.441 44.0143 30.1289 44.4808 27.3264C45.5834 20.49 45.5834 16.8807 44.4384 14.5028C42.8693 11.2332 40.6217 10.7236 33.4547 11.9975C24.6763 13.5686 22.7679 14.0782 21.4109 15.4794C19.8842 16.9656 20.5203 17.3053 24.8883 17.2628C32.2673 17.1779 32.9458 18.0696 30.6982 24.5664C29.8501 27.0292 28.4082 31.3179 27.56 34.1204L25.9485 39.2159L21.9622 39.1734C18.5271 39.1734 17.5093 38.9611 14.5832 37.8146C8.77331 35.5216 9.28221 36.6681 9.28221 25.4156C9.28221 16.5835 9.53666 14.3329 10.3424 15.6493C10.8937 16.4985 13.0141 16.1164 13.9047 14.9699C14.9649 13.6111 15.0073 12.7618 14.1167 11.488C13.6078 10.7236 13.5654 10.5538 14.0743 10.5538C15.0497 10.5538 16.0675 9.11008 16.0675 7.70882C16.0675 6.0528 14.8801 5.0337 12.9717 5.0337C11.5722 5.0337 11.4026 4.90631 11.4026 3.97215C11.4026 2.4435 10.5969 0.957321 9.40943 0.405312C8.22201 -0.146698 8.47646 -0.189163 7.077 0.617622ZM9.32462 1.63672C10.8513 2.48596 10.0031 6.47742 8.34923 6.22265C6.99218 6.0528 6.39847 3.71737 7.33144 2.27365C8.13719 1.08471 8.1796 1.04224 9.32462 1.63672ZM4.82938 6.6048C6.39847 7.32667 6.48328 7.49651 6.05921 8.60053C5.71994 9.44978 1.69119 9.57717 1.60637 8.72792C1.47915 7.36913 2.15768 5.88295 2.96343 5.88295C3.17547 5.88295 3.98122 6.22265 4.82938 6.6048ZM14.5832 7.75129C14.5832 9.36485 13.523 10.0443 12.0811 9.36485C10.0031 8.43069 11.1057 6.18018 13.523 6.43496C14.3712 6.51988 14.5832 6.73219 14.5832 7.75129ZM9.91833 9.02516C9.91833 10.2566 8.60368 10.8935 7.79793 10.0867C6.82255 9.11008 7.41626 7.92113 8.81572 8.09099C9.57906 8.17591 9.91833 8.47314 9.91833 9.02516ZM7.33144 12.6345C7.20422 13.0166 7.03459 13.5686 7.03459 13.8659C7.03459 14.5877 5.29586 15.437 4.49011 15.0973C3.21787 14.6302 3.3451 13.0166 4.70215 11.7427C5.93198 10.5963 6.05921 10.5538 6.82255 11.2757C7.28904 11.7003 7.50107 12.2523 7.33144 12.6345ZM12.59 11.488C13.3534 12.2523 13.2261 13.7385 12.3356 14.5028C11.6995 15.0973 11.445 15.0973 10.8937 14.6726C10.1728 14.0782 9.2398 11.6154 9.57906 11.2332C10.0456 10.7661 12.0811 10.9784 12.59 11.488ZM41.0457 13.7385C41.7243 14.0782 42.5724 15.0123 42.9541 15.8191C43.8023 17.645 43.8447 22.146 42.9965 25.6279C42.6572 27.0292 42.2756 29.7043 42.1483 31.5726C41.8091 36.0737 41.597 36.8804 40.8761 36.8804C39.9855 36.8804 38.162 38.9611 37.1866 41.0417C36.1688 43.2922 36.4233 45.3729 38.1196 48.7699C40.6217 53.6955 45.7954 57.2199 53.3016 59.1731C56.7367 60.0224 58.8995 60.9566 63.0555 63.292C66.024 64.948 69.0774 66.5616 69.8407 66.9013C72.5124 68.0053 70.9009 68.345 63.2251 68.1327C55.3796 67.9628 51.7325 67.4533 45.4562 65.5425C40.452 64.0139 38.6709 63.1646 35.6599 60.8716C30.8254 57.2199 28.0265 51.997 27.6448 45.9674C27.3056 40.8719 27.8993 37.7721 30.9527 28.6852C34.2181 18.8764 34.2181 17.2204 30.9527 16.1164C29.1291 15.5219 23.9129 15.5219 22.8103 16.0739C22.3438 16.3711 22.0046 16.3711 22.0046 16.1164C22.0046 15.6917 24.2946 15.0973 30.4862 13.9508C35.5751 12.9742 39.4767 12.9317 41.0457 13.7385Z" fill="#C9CACB"/>
<path d="M36.1688 14.97C36.0416 15.3522 36.0416 16.159 36.1688 16.7534C36.3809 17.6027 36.6777 17.815 37.5683 17.6876C39.0102 17.5178 39.7735 16.3713 39.1374 15.3097C38.5013 14.3331 36.5081 14.1208 36.1688 14.97Z" fill="#C9CACB"/>
<path d="M119.161 43.9289C116.829 45.8822 115.302 50.0435 116.914 50.0435C117.422 50.0435 117.889 49.3641 118.398 47.9204C118.822 46.689 119.585 45.5 120.221 45.0754C121.621 44.1837 124.589 44.1837 125.989 45.1179C127.94 46.3917 128.576 49.7887 127.388 52.3789C126.625 53.9925 125.48 54.587 122.511 54.9691C119.543 55.3513 119.755 56.243 122.935 56.5827C126.583 57.0073 128.067 58.3661 128.364 61.5933C128.661 65.5423 126.71 67.8777 123.063 67.8777C120.688 67.8777 118.949 66.6038 118.059 64.3108C117.55 62.9521 117.083 62.3576 116.489 62.3576C115.853 62.3576 115.769 62.5699 115.981 63.5041C116.871 67.2832 119.628 69.5762 123.232 69.5762C127.473 69.5762 130.145 66.7737 130.145 62.2302C130.145 59.3003 129.339 57.6443 127.346 56.5827L125.946 55.8184L127.346 54.8417C130.526 52.7186 130.526 46.9862 127.431 44.0988C126.498 43.2495 125.734 43.0372 123.402 42.9098C120.773 42.74 120.433 42.8249 119.161 43.9289Z" fill="#C9CACB"/>
<path d="M84.3442 56.2008C84.3442 68.8546 84.3442 69.1519 85.1924 69.1519C85.9981 69.1519 86.0406 68.8546 86.0406 64.0564V58.9609H89.2211C93.4195 58.9609 95.5399 57.9418 96.6849 55.4365C97.83 52.8888 97.7451 49.0672 96.5577 46.6468C95.1159 43.9292 93.5468 43.2498 88.5002 43.2498H84.3442V56.2008ZM92.0201 44.9483C94.5221 45.6277 95.4975 47.0715 95.7096 50.2561C95.9216 53.3983 95.3703 55.1818 93.7588 56.4132C92.9106 57.0926 92.0625 57.2624 89.3908 57.2624H86.0406V51.1903C86.0406 47.8358 86.1678 44.9483 86.3374 44.8209C86.7615 44.3963 90.2813 44.4813 92.0201 44.9483Z" fill="#C9CACB"/>
<path d="M104.573 45.4579C104.191 46.6893 102.749 52.2094 101.307 57.687C99.8655 63.1647 98.5933 68.0054 98.5085 68.3875C98.3389 68.9395 98.5085 69.1519 99.1446 69.1519C99.9928 69.1519 100.544 67.8355 101.477 63.5044L101.774 62.3154L106.1 62.4428L110.425 62.5702L111.273 65.8398C111.994 68.6848 112.206 69.1519 113.012 69.1519H113.945L113.097 66.0521C111.613 60.4471 108.941 50.2986 108.05 46.7318C107.245 43.632 107.032 43.2498 106.142 43.2498C105.336 43.2498 105.082 43.632 104.573 45.4579ZM108.093 53.2285C109.026 56.9652 109.789 60.2772 109.789 60.532C109.789 60.9566 108.729 61.084 105.93 61.084C102.495 61.084 102.113 60.9991 102.325 60.3197C102.452 59.9375 103.131 57.2199 103.852 54.29C105.718 46.6893 106.057 45.5428 106.227 46.0099C106.312 46.2222 107.16 49.4918 108.093 53.2285Z" fill="#C9CACB"/>
<path d="M134.81 56.2008V69.1519H138.966C143.715 69.1519 145.454 68.5149 146.981 66.2644C149.059 63.1222 148.338 58.324 145.539 56.583C144.903 56.1584 144.267 55.7762 144.182 55.6913C144.055 55.6064 144.394 55.2667 144.903 54.8845C148.253 52.5491 147.659 45.6702 143.97 43.9292C142.952 43.4622 141.383 43.2498 138.669 43.2498H134.81V56.2008ZM142.061 44.9483C144.267 45.5428 145.115 46.6893 145.284 49.322C145.581 53.3559 143.546 55.1393 138.542 55.1393H136.506V49.8315V44.5237H138.542C139.644 44.5237 141.213 44.736 142.061 44.9483ZM143.885 57.4323C146.26 58.9609 147.066 61.9333 145.878 64.8207C145.072 66.774 143.503 67.4534 139.687 67.4534H136.506V61.8908V56.2858L139.644 56.4981C141.595 56.6255 143.249 56.9652 143.885 57.4323Z" fill="#C9CACB"/>
<path d="M152.197 56.2008V69.1519H153.172C154.02 69.1519 154.445 68.5574 155.886 65.4152C156.819 63.377 159.067 58.4089 160.933 54.375L164.283 47.029L164.41 58.1117C164.495 68.8122 164.538 69.1519 165.343 69.1519C166.192 69.1519 166.192 68.8122 166.192 56.2008V43.2498H165.174C164.283 43.2498 163.774 44.0991 160.424 51.6149C158.346 56.2433 156.056 61.2539 155.293 62.7825L153.936 65.5426V54.375C153.893 43.5471 153.851 43.2498 153.045 43.2498C152.197 43.2498 152.197 43.5471 152.197 56.2008Z" fill="#C9CACB"/>
<path d="M170.008 43.8868C170.008 44.3539 170.687 44.5237 172.892 44.6086L175.733 44.736L175.861 56.9227C175.945 67.3684 176.03 69.1519 176.581 69.1519C177.133 69.1519 177.218 67.3684 177.302 56.9227L177.43 44.736L180.313 44.6086C182.476 44.5237 183.155 44.3539 183.155 43.8868C183.155 43.3348 182.052 43.2498 176.581 43.2498C171.111 43.2498 170.008 43.3348 170.008 43.8868Z" fill="#C9CACB"/>
<path d="M186.971 56.2008V69.1519H187.947C188.837 69.1519 189.516 67.9629 194.011 58.0692L199.058 46.9865L199.185 58.0692C199.27 68.8122 199.312 69.1519 200.118 69.1519C200.966 69.1519 200.966 68.8122 200.966 56.2008V43.2498H199.948C199.058 43.2498 198.464 44.3963 193.926 54.375L188.88 65.5001L188.753 54.375C188.668 43.5895 188.625 43.2498 187.82 43.2498C186.971 43.2498 186.971 43.5895 186.971 56.2008Z" fill="#C9CACB"/>
<path d="M206.903 56.2008V69.1519H212.798C217.463 69.1519 218.735 69.0245 218.905 68.5574C219.032 68.2177 219.032 67.8355 218.905 67.7081C218.735 67.5807 216.36 67.4534 213.604 67.4534H208.599V62.1456V56.8378H213.264C217.632 56.8378 217.929 56.7953 217.929 55.9885C217.929 55.1818 217.632 55.1393 213.264 55.1393H208.599V49.8315V44.5237H213.688C217.929 44.5237 218.777 44.3963 218.777 43.8868C218.777 43.3348 217.844 43.2498 212.84 43.2498H206.903V56.2008Z" fill="#C9CACB"/>
</svg>
