<svg width="201" height="120" viewBox="0 0 201 120" fill="none" xmlns="http://www.w3.org/2000/svg">
<path d="M0 31.7057L22.0341 92.3496L63.5248 84.0061V25.3481L0 31.7057Z" fill="#EEEFEF"/>
<path d="M71.3115 25.3485L77.981 89.7959L129.531 86.4299V30.0347L71.3115 25.3485Z" fill="#EEEFEF"/>
<path d="M138.306 33.4638L201 32.4824L185.342 90.8174L141.821 87.4502L138.306 33.4638Z" fill="#EEEFEF"/>
<path d="M29.9367 84.9405C30.0561 84.9587 30.2307 84.971 30.4803 84.971C35.5626 84.971 51.2296 79.5234 55.6076 77.968C51.3262 62.6968 45.0111 40.4704 44.3336 38.8573C41.9041 33.0873 39.5366 31.8757 37.9787 31.8757C37.8679 31.8757 37.7574 31.8816 37.6442 31.8947C37.5383 31.903 37.4303 31.9109 37.3223 31.9109C32.4462 31.9109 25.4577 19.3024 23.4333 15.4395L23.0789 14.7673L25.7695 10.7219L23.8263 6.47978L12.0075 9.33083L10.7285 14.1387L16.1289 15.5074L22.9511 35.1443L22.446 35.7103C22.3889 35.7768 16.6133 42.2883 15.7579 47.3422C15.1896 50.7127 22.2488 66.8893 26.0427 75.5802C28.2542 80.6465 29.5252 83.5829 29.9367 84.9405ZM30.4803 87.5845C28.2635 87.5845 27.5966 86.6621 27.4281 85.8895C27.2231 84.9607 25.4537 80.9019 23.5766 76.602C17.4738 62.6168 12.474 50.7289 13.1161 46.9177C13.9414 42.0297 18.4026 36.3851 19.926 34.5744L14.0567 17.6822L7.46313 16.0134L9.81472 7.16821L25.355 3.41784L28.8111 10.951L26.1726 14.9174C29.9469 21.9598 35.1586 29.2973 37.3223 29.2973C37.5704 29.273 37.7753 29.2629 37.9787 29.2629C41.4365 29.2629 44.4095 32.1565 46.8109 37.8648C47.7941 40.2007 57.4217 74.5267 58.517 78.4334L58.8381 79.5832L57.6929 80.0029C56.846 80.3123 36.8607 87.5845 30.4803 87.5845Z" fill="#C9CACB"/>
<path d="M83.9282 79.3118L109.91 82.54C110.656 78.5145 111.61 72.9393 112.532 67.5301C114.113 58.2965 115.605 49.5731 116.338 46.718C117.446 42.3745 114.874 40.5273 112.608 38.8968C111.207 37.8901 109.759 36.8501 110.056 35.2298C110.606 32.2499 112.582 31.5668 114.171 31.019C116.032 30.3771 117.785 29.7718 118.5 25.1099C119.439 18.981 117.565 14.5858 113.484 13.3509C112.007 12.9047 111.544 12.0379 111.417 11.389C111.14 9.97765 112.312 8.62917 113.098 7.90221L113.122 4.07478L105.272 2.92908L104.304 6.40166C104.872 7.26042 105.54 8.62208 105.052 9.75256C104.875 10.1622 104.398 10.8729 103.193 11.0189C99.117 11.5106 93.9959 13.8122 92.7488 21.9882C92.143 25.9413 93.4004 26.7403 94.8563 27.668C96.2187 28.5338 98.0778 29.717 97.3285 33.1105C97.0001 34.5961 95.5879 35.4397 94.0915 36.3288C91.8375 37.673 89.0317 39.3451 88.4456 43.7037C87.4116 51.38 84.6265 73.7029 83.9282 79.3118ZM112.087 85.4478L80.9478 81.5744L81.1079 80.286C81.1432 80.0072 84.6078 52.1404 85.7873 43.3643C86.5428 37.7645 90.2454 35.5582 92.6969 34.0991C93.5552 33.5874 94.6246 32.9505 94.7098 32.5612C95.0714 30.9248 94.6474 30.6559 93.3942 29.857C91.7408 28.8045 89.2395 27.2127 90.0989 21.6029C91.6182 11.6546 98.2742 9.09657 102.416 8.48418C102.272 8.16582 102.029 7.75418 101.782 7.43987L101.381 6.92686L103.311 -3.8147e-05L115.817 1.82496L115.77 9.12395L115.273 9.51328C114.792 9.89552 114.291 10.4623 114.117 10.7999C114.159 10.8161 114.213 10.8344 114.277 10.8536C119.65 12.4809 122.284 18.0898 121.15 25.4962C120.196 31.7117 117.231 32.7347 115.063 33.4816C113.658 33.9665 113.002 34.1946 112.713 35.5846C112.909 35.8655 113.647 36.3978 114.197 36.7942C116.547 38.4822 120.476 41.3091 118.936 47.3477C118.233 50.1066 116.677 59.1837 115.177 67.961C114.151 73.9492 113.091 80.1379 112.317 84.2319" fill="#C9CACB"/>
<path d="M177.531 77.7033L143.731 62.7984L163.716 15.1301L191.829 23.8546L182.724 34.5889L195.634 41.0096L177.531 77.7033ZM195.596 38.0575L186.917 33.7414L193.332 26.1815L195.596 38.0575ZM195.298 22.1888L162.175 11.909L140.275 64.1406L178.811 81.1343L198.804 40.6084" fill="#C9CACB"/>
<path d="M23.9415 110.452L25.4151 108.92V104.424L23.9663 103.009H21.4256V110.452H23.9415ZM27.6014 103.545V109.755L24.8683 112.56H21.4256V118.261H19.2639V103.635L20.1651 103.103V102.942H17.9796V100.9H24.8444" fill="#C9CACB"/>
<path d="M34.7052 103.009H34.2542L32.948 111.633H36.0363L34.7052 103.009ZM30.9982 100.901H36.5832L39.2184 118.262H37.0341L36.3452 113.742H32.6394L31.9501 118.262H29.7638L31.9501 103.706L32.8513 103.174V103.009H30.9982" fill="#C9CACB"/>
<path d="M43.9008 107.947H45.7068L46.9652 106.441V104.332L45.7774 102.985H44.5658L43.4246 104.332V105.351H41.2404V103.45L43.6637 100.832H46.6814L49.1516 103.45V107.277L47.8445 108.805L49.6257 110.52V115.642L47.037 118.309H43.6637L41.097 115.642V112.513H43.2595V114.809L44.5897 116.247H46.086L47.4401 114.809V111.493L45.9199 109.988H43.9008" fill="#C9CACB"/>
<path d="M59.7474 102.965H57.6087L55.6372 116.408H59.7474V102.965ZM51.7402 120V116.408H53.4521L55.3047 103.683L56.2079 103.125V102.965H54.354V100.9H61.9089V116.408H63.4292V120H61.3373V118.261H53.8324V120" fill="#C9CACB"/>
<path d="M72.0773 108.619V110.73H68.064V116.153H71.246V114.368H73.4085V118.262H65.9004V103.705L66.8045 103.174V103.01H64.6419V100.901H73.1965V105.004H71.034V103.01H68.064V108.619" fill="#C9CACB"/>
<path d="M77.4956 102.965V100.901H85.0516V118.262H82.888V102.965H80.7504L78.5182 118.262H75.2156V116.316H76.5936L78.4465 103.683L79.4202 103.125V102.965" fill="#C9CACB"/>
<path d="M90.5177 108.713V116.153H93.0575L94.5082 114.737V110.242L93.0357 108.713H90.5177ZM93.9366 118.262H88.3541V100.901H90.5177V106.605H93.9605L96.6926 109.408V115.619" fill="#C9CACB"/>
<path d="M98.7616 100.948H102.182V108.597H106.197V100.948H108.358V118.261H106.197V110.613H102.182V118.261H100.02V103.729L100.899 103.218V103.056H98.7616" fill="#C9CACB"/>
<path d="M122.471 100.878H124.632V118.262H122.471V100.878ZM113.849 108.712V116.152H116.391L117.839 114.738V110.242L116.365 108.712H113.849ZM117.268 118.261H111.686V100.9H113.849V106.604H117.292L120.024 109.408V115.619" fill="#C9CACB"/>
<path d="M129.672 98.1895L130.861 96.9142L131.762 97.6572H133.212L134.163 96.9142L135.304 98.1895L133.971 99.6263H131.026L129.672 98.1895ZM126.939 103.056V100.948H130.359V107.044L130.029 114.02H130.098L131.858 107.16L133.877 100.948H136.799V118.262H134.637V109.917L135.041 103.891H134.969L133.282 109.733L130.504 118.262H128.198V103.729L129.078 103.219V103.056" fill="#C9CACB"/>
<path d="M150.84 104.215L149.485 102.848H147.942L146.612 104.215V114.785L147.965 116.269H149.463L150.84 114.785V112.859L153.003 112.839V115.573L150.413 118.378H147.015L144.451 115.573V103.382L147.04 100.738H150.413L153.003 103.382V106.001H150.84" fill="#C9CACB"/>
<path d="M158.397 109.501V116.153H160.937L162.387 114.737V111.031L160.913 109.501H158.397ZM154.975 102.985V100.877H164.076V104.749H161.913V102.985H158.397V107.392H161.841L164.572 110.196V115.618L161.817 118.262H156.235V103.661L157.113 103.148V102.985" fill="#C9CACB"/>
<path d="M174.267 114.737V104.145L172.841 102.755H171.226L169.799 104.145V114.737L171.25 116.246H172.818L174.267 114.737ZM176.429 115.55L173.743 118.332H170.322L167.664 115.55V103.288L170.346 100.67H173.743L176.429 103.288" fill="#C9CACB"/>
<path d="M184.65 110.452L186.122 108.92V104.424L184.673 103.009H182.131V110.452H184.65ZM188.308 103.545V109.755L185.576 112.56H182.131V118.261H179.97V103.635L180.872 103.103V102.942H178.685V100.9H185.552" fill="#C9CACB"/>
</svg>
